<?xml version="1.0" encoding="utf-8"?>
<!-- Generator: Adobe Illustrator 23.1.0, SVG Export Plug-In . SVG Version: 6.00 Build 0)  -->
<svg version="1.1" id="Layer_1" xmlns="http://www.w3.org/2000/svg" xmlns:xlink="http://www.w3.org/1999/xlink" x="0px" y="0px"
	 viewBox="0 0 500 500" style="enable-background:new 0 0 500 500;" xml:space="preserve">
<style type="text/css">
	.st0{fill:url(#SVGID_1_);}
	.st1{fill:url(#SVGID_2_);}
	.st2{fill:url(#SVGID_3_);}
	.st3{fill:url(#SVGID_4_);}
	.st4{fill:url(#SVGID_5_);}
	.st5{fill:url(#SVGID_6_);}
	.st6{fill:url(#SVGID_7_);}
	.st7{fill:url(#SVGID_8_);}
	.st8{fill:url(#SVGID_9_);}
	.st9{fill:url(#SVGID_10_);}
	.st10{fill:url(#SVGID_11_);}
	.st11{fill:url(#SVGID_12_);}
</style>
<linearGradient id="SVGID_1_" gradientUnits="userSpaceOnUse" x1="-2477.7942" y1="656.769" x2="-2451.5232" y2="625.6481" gradientTransform="matrix(0.4657 -0.3962 -0.3887 -0.4034 1835.1937 -546.5683)">
	<stop  offset="0" style="stop-color:#FFEC5F"/>
	<stop  offset="1" style="stop-color:#FCBC22"/>
</linearGradient>
<path class="st0" d="M426.7,189.4c0,0-27.7-11.8,3.9-37c1.3-1,3.3-1,4.3,0.1C440.1,157.8,451.8,173.6,426.7,189.4z"/>
<linearGradient id="SVGID_2_" gradientUnits="userSpaceOnUse" x1="-2461.833" y1="641.2057" x2="-2485.8801" y2="662.626" gradientTransform="matrix(0.4657 -0.3962 -0.3887 -0.4034 1835.1937 -546.5683)">
	<stop  offset="0" style="stop-color:#FCBC22;stop-opacity:0"/>
	<stop  offset="0.214" style="stop-color:#EE9621;stop-opacity:0.2157"/>
	<stop  offset="0.5597" style="stop-color:#EE9621;stop-opacity:0.5608"/>
	<stop  offset="0.8338" style="stop-color:#B8292F;stop-opacity:0.8353"/>
	<stop  offset="1" style="stop-color:#B8292F"/>
</linearGradient>
<path class="st1" d="M434.8,152.5c-0.6-0.6-1.5-0.9-2.3-0.8c-5.1,17.7-5.8,37.8-5.8,37.8C451.8,173.6,440.1,157.8,434.8,152.5z"/>
<linearGradient id="SVGID_3_" gradientUnits="userSpaceOnUse" x1="-2611.9258" y1="-2558.248" x2="-2597.2751" y2="-2566.489" gradientTransform="matrix(0.5873 -0.1759 -0.1417 -0.5351 1596.2075 -1655.7607)">
	<stop  offset="0" style="stop-color:#FCBC22"/>
	<stop  offset="1" style="stop-color:#B8292F"/>
</linearGradient>
<path class="st2" d="M433.5,163.3c-0.2,0.2-0.5,0.4-0.7,0.7s-0.5,0.4-0.7,0.7s-0.5,0.4-0.8,0.6s-0.5,0.4-0.7,0.7
	c-0.2,0.2-0.4,0.5-0.5,0.8c0.1-0.4,0-0.8,0.1-1.2l0.2-2c0-0.6,0.1-1.3,0.2-2c0.1-1.3,0.4-2.7,0.7-3.9l-0.3-0.1l-0.4,1l-0.2,0.4
	c-0.1,0.2-0.1,0.4-0.2,0.4c-0.2,0.7-0.4,1.3-0.6,2c-0.4,1.3-0.7,2.7-1,4c0,0.3-0.1,0.5-0.2,0.8c-0.1-0.2-0.2-0.4-0.4-0.5
	c-0.2-0.2-0.4-0.4-0.5-0.6c-0.2-0.2-0.3-0.4-0.5-0.7s-0.3-0.4-0.5-0.7c-0.3-0.4-0.6-1-0.9-1.5h-0.2c0,0.6,0.1,1.2,0.2,1.9
	c0.1,0.3,0.2,0.6,0.2,0.9c0.1,0.3,0.2,0.6,0.3,0.9c0.1,0.3,0.2,0.6,0.3,0.9c0.1,0.3,0.3,0.5,0.5,0.7c0.1,0,0,0.1,0.1,0.2
	c0.5,0.4,0.7,1.2,0.6,1.8l0,0c-0.2,1.3-0.5,2.4-0.7,3.6c-0.2-0.3-0.3-0.4-0.5-0.7c-0.2-0.2-0.4-0.4-0.7-0.6
	c-0.3-0.1-0.5-0.3-0.8-0.5c-0.2-0.2-0.4-0.4-0.7-0.6s-0.4-0.4-0.7-0.6c-0.4-0.4-0.9-0.8-1.3-1.3l-0.1,0.1c0.2,0.6,0.4,1.1,0.7,1.7
	c0.2,0.3,0.3,0.5,0.5,0.8s0.4,0.6,0.5,0.7c0.2,0.3,0.4,0.6,0.6,0.8c0.2,0.3,0.4,0.5,0.8,0.6c0.2,0.1,0.3,0.1,0.4,0.2
	c0.7,0.3,1,1,0.8,1.7c-0.1,0.6-0.2,1.3-0.4,1.9c-0.1,0.8-0.2,1.6-0.3,2.3c-0.1-0.3-0.2-0.4-0.5-0.6c-0.2-0.2-0.4-0.4-0.7-0.6
	c-0.3-0.1-0.5-0.3-0.8-0.5c-0.2-0.2-0.4-0.4-0.7-0.6s-0.4-0.4-0.7-0.6c-0.4-0.4-0.9-0.8-1.3-1.3l-0.1,0.1c0.2,0.6,0.4,1.1,0.7,1.7
	c0.2,0.3,0.3,0.5,0.5,0.8s0.4,0.6,0.5,0.7c0.2,0.3,0.4,0.6,0.6,0.8s0.4,0.5,0.8,0.6c0.3,0.1,0.6,0.3,1,0.4c0.4,0.1,0.7,0.4,0.7,0.8
	c0,1,0,2.8,0.1,3.8c0.1,1.3,0.3,2.7,0.7,4h0.3c0.6-1.3,1-2.6,1.3-4c0.3-1.3,0.6-2.7,0.8-4V181c0.1-0.4,0.4-0.8,0.9-0.8
	c0.3-0.1,0.7-0.1,0.9-0.3c0.4-0.2,0.6-0.3,0.9-0.6c0.3-0.2,0.5-0.5,0.8-0.7s0.5-0.4,0.8-0.7c0.2-0.2,0.5-0.4,0.7-0.8
	c0.4-0.6,0.8-1,1.2-1.6l-0.1-0.2c-0.6,0.4-1.1,0.8-1.7,1.1c-0.3,0.2-0.5,0.3-0.8,0.5s-0.5,0.3-0.8,0.5s-0.6,0.3-0.9,0.4
	c-0.3,0.1-0.5,0.3-0.8,0.5s-0.5,0.4-0.8,0.7c0.1-0.7,0.2-1.4,0.1-2c0-0.5,0-1.3,0.1-2c0-0.7,0.6-1.3,1.3-1.6c0.4-0.2,0.7-0.2,1-0.4
	c0.4-0.2,0.6-0.3,0.9-0.6c0.3-0.2,0.5-0.5,0.8-0.7s0.5-0.4,0.8-0.7s0.5-0.4,0.7-0.8c0.4-0.6,0.8-1,1.2-1.6l-0.1-0.2
	c-0.6,0.4-1.1,0.8-1.7,1.1c-0.3,0.2-0.5,0.3-0.8,0.5s-0.5,0.3-0.8,0.5s-0.6,0.3-0.9,0.4c-0.3,0.1-0.5,0.3-0.8,0.5
	c-0.5,0.4-0.9,0.8-1.3,1.5c0.1-1.3,0.2-2.7,0.3-4v-0.1c0-0.8,0.5-1.6,1.3-2c0.2-0.1,0.4-0.3,0.7-0.4c0.3-0.2,0.5-0.4,0.7-0.8
	c0.2-0.3,0.3-0.6,0.5-0.8s0.3-0.6,0.5-0.8s0.3-0.6,0.5-0.9c0.3-0.6,0.6-1.1,0.7-1.8l-0.2-0.1C434.4,162.4,434,162.9,433.5,163.3z"/>
<linearGradient id="SVGID_4_" gradientUnits="userSpaceOnUse" x1="109.2214" y1="-65.5926" x2="123.4378" y2="-82.4336" gradientTransform="matrix(0.9981 0.1075 0.1075 -0.9981 -75.5769 393.2068)">
	<stop  offset="0" style="stop-color:#FFE548"/>
	<stop  offset="1" style="stop-color:#FFB211"/>
</linearGradient>
<path class="st3" d="M13.4,483.7c0,0-7.6-27.2,27.9-22.1c1.5,0.2,2.5,1.6,2.4,3.1C42.9,471.8,38.6,490.5,13.4,483.7z"/>
<linearGradient id="SVGID_5_" gradientUnits="userSpaceOnUse" x1="117.8755" y1="-73.9599" x2="104.8624" y2="-62.3684" gradientTransform="matrix(0.9981 0.1075 0.1075 -0.9981 -75.5769 393.2068)">
	<stop  offset="0" style="stop-color:#FFB211;stop-opacity:0"/>
	<stop  offset="0.214" style="stop-color:#FF951D;stop-opacity:0.2157"/>
	<stop  offset="0.5597" style="stop-color:#FF6D2F;stop-opacity:0.5608"/>
	<stop  offset="0.8338" style="stop-color:#FF543A;stop-opacity:0.8353"/>
	<stop  offset="1" style="stop-color:#FF4B3E"/>
</linearGradient>
<path class="st4" d="M43.6,464.7c0.1-0.8-0.2-1.6-0.7-2.2c-15.2,8.3-29.5,21.2-29.5,21.2C38.6,490.5,42.9,471.8,43.6,464.7z"/>
<linearGradient id="SVGID_6_" gradientUnits="userSpaceOnUse" x1="39.4081" y1="-2057.0435" x2="47.3364" y2="-2061.5032" gradientTransform="matrix(0.844 0.5363 0.5363 -0.844 1093.8877 -1286.4536)">
	<stop  offset="0" style="stop-color:#FFB211"/>
	<stop  offset="1" style="stop-color:#FF4B3E"/>
</linearGradient>
<path class="st5" d="M35.4,471c-0.3,0-0.6,0-0.9,0s-0.6,0-0.9-0.1c-0.3,0-0.6-0.1-0.8-0.1c-0.3-0.1-0.6-0.1-0.8,0
	c-0.3,0-0.6,0.1-0.8,0.2c0.3-0.3,0.6-0.5,0.9-0.7l1.5-1.2c0.5-0.4,1-0.8,1.5-1.2c1-0.8,2.1-1.5,3.2-2.2l-0.1-0.3l-0.9,0.4l-0.4,0.2
	c-0.1,0.1-0.3,0.1-0.4,0.2c-0.6,0.3-1.2,0.6-1.7,0.9c-1.1,0.6-2.3,1.3-3.4,1.9c-0.2,0.1-0.4,0.3-0.6,0.4c0.1-0.2,0.1-0.4,0.1-0.6
	c0-0.3,0.1-0.6,0.1-0.8c0.1-0.3,0.1-0.6,0.2-0.8c0.1-0.3,0.1-0.6,0.2-0.8c0.1-0.6,0.4-1.1,0.6-1.7l-0.1-0.1
	c-0.4,0.4-0.8,0.9-1.2,1.4c-0.2,0.3-0.3,0.5-0.5,0.8c-0.1,0.3-0.3,0.5-0.4,0.8s-0.3,0.6-0.4,0.8c-0.1,0.3-0.2,0.6-0.3,0.9
	c0,0.1,0,0.1,0,0.2c0,0.7-0.4,1.3-1,1.7l0,0c-1,0.6-1.9,1.3-2.9,2c0.1-0.3,0.1-0.6,0.2-0.8c0-0.3,0-0.6,0-0.8c0-0.3-0.1-0.6-0.1-0.9
	s0-0.6,0-0.9s0-0.6,0-0.9c0-0.6,0.1-1.2,0.1-1.8l-0.1-0.1c-0.3,0.5-0.6,1.1-0.8,1.7c-0.1,0.3-0.2,0.6-0.3,0.9
	c-0.1,0.3-0.2,0.6-0.2,0.9c-0.1,0.3-0.2,0.6-0.2,0.9c-0.1,0.3-0.1,0.6,0,0.9c0,0.1,0.1,0.3,0.1,0.4c0.2,0.7-0.1,1.4-0.7,1.7
	c-0.5,0.3-1,0.6-1.5,1c-0.6,0.4-1.2,0.9-1.8,1.3c0.1-0.2,0.1-0.5,0.2-0.7c0-0.3,0-0.6,0-0.8c0-0.3-0.1-0.6-0.1-0.9s0-0.6,0-0.9
	s0-0.6,0-0.9c0-0.6,0.1-1.2,0.1-1.8l-0.1-0.1c-0.3,0.5-0.6,1.1-0.8,1.7c-0.1,0.3-0.2,0.6-0.3,0.9c-0.1,0.3-0.2,0.6-0.2,0.9
	c-0.1,0.3-0.2,0.6-0.2,0.9c-0.1,0.3-0.1,0.6,0,0.9s0.1,0.6,0.3,0.9c0.2,0.3,0.1,0.7-0.2,1c-0.7,0.7-2,1.9-2.6,2.6
	c-0.9,1-1.7,2-2.4,3.1l0.2,0.2c1.3-0.5,2.4-1.1,3.5-1.8c1.1-0.6,2.2-1.3,3.2-2.1c0,0,0,0,0.1,0c0.3-0.2,0.8-0.2,1.1,0.1
	c0.2,0.2,0.5,0.4,0.7,0.5c0.3,0.1,0.6,0.2,0.9,0.3c0.3,0,0.6,0,0.9,0.1c0.3,0,0.6,0.1,0.9,0.1s0.6,0,0.9,0c0.6,0,1.2-0.1,1.8-0.3
	v-0.2c-0.6-0.1-1.2-0.2-1.7-0.4c-0.3-0.1-0.6-0.2-0.8-0.3c-0.3-0.1-0.6-0.2-0.8-0.3c-0.3-0.1-0.5-0.2-0.8-0.3
	c-0.3-0.1-0.5-0.2-0.8-0.3c-0.3,0-0.6-0.1-0.9-0.1c0.5-0.4,1-0.8,1.5-1.3c0.4-0.4,0.9-0.8,1.4-1.3c0.5-0.4,1.2-0.5,1.8-0.2
	c0.3,0.2,0.6,0.3,0.9,0.4s0.6,0.2,0.9,0.3c0.3,0,0.6,0,0.9,0.1c0.3,0,0.6,0.1,0.9,0.1s0.6,0,0.9,0c0.6,0,1.2-0.1,1.8-0.3v-0.2
	c-0.6-0.1-1.2-0.2-1.7-0.4c-0.3-0.1-0.6-0.2-0.8-0.3c-0.3-0.1-0.6-0.2-0.8-0.3c-0.3-0.1-0.5-0.2-0.8-0.3s-0.5-0.2-0.8-0.3
	c-0.5-0.1-1.1-0.1-1.8,0c1-0.8,1.9-1.7,2.9-2.5l0,0c0.6-0.5,1.4-0.7,2.1-0.4c0.2,0.1,0.4,0.1,0.6,0.2c0.3,0.1,0.6,0.1,0.9,0
	s0.6-0.1,0.9-0.2s0.6-0.1,0.9-0.2c0.3-0.1,0.6-0.2,0.9-0.3c0.6-0.2,1.1-0.4,1.7-0.7l-0.1-0.2C36.5,470.9,35.9,471,35.4,471z"/>
<linearGradient id="SVGID_7_" gradientUnits="userSpaceOnUse" x1="1341.3887" y1="1188.0994" x2="1354.1733" y2="1172.9545" gradientTransform="matrix(0.8758 0.4908 0.4908 -0.8758 -1620.5179 454.545)">
	<stop  offset="0" style="stop-color:#E46425"/>
	<stop  offset="1" style="stop-color:#B3262A"/>
</linearGradient>
<path class="st6" d="M121.7,79.1c0,0,3.8-25.5,31.4-9.1c1.2,0.7,1.5,2.2,0.8,3.4C150.6,79.1,140,93.4,121.7,79.1z"/>
<linearGradient id="SVGID_8_" gradientUnits="userSpaceOnUse" x1="1349.1869" y1="1180.605" x2="1337.7711" y2="1190.7737" gradientTransform="matrix(0.8758 0.4908 0.4908 -0.8758 -1620.5179 454.545)">
	<stop  offset="0" style="stop-color:#B3262A;stop-opacity:0"/>
	<stop  offset="1" style="stop-color:#231F20"/>
</linearGradient>
<path class="st7" d="M153.9,73.3c0.3-0.7,0.4-1.4,0.2-2.1c-15.7,1.9-32.4,7.8-32.4,7.8C140,93.4,150.6,79.1,153.9,73.3z"/>
<linearGradient id="SVGID_9_" gradientUnits="userSpaceOnUse" x1="1338.59" y1="1187.4141" x2="1341.6718" y2="1183.4376" gradientTransform="matrix(0.8758 0.4908 0.4908 -0.8758 -1620.5179 454.545)">
	<stop  offset="0" style="stop-color:#B3262A"/>
	<stop  offset="1" style="stop-color:#231F20"/>
</linearGradient>
<path class="st8" d="M144.7,75.9c-0.3-0.1-0.5-0.2-0.7-0.3c-0.3-0.1-0.5-0.2-0.7-0.3c-0.3-0.1-0.5-0.3-0.7-0.4
	c-0.2-0.2-0.5-0.3-0.7-0.3c-0.3,0-0.5-0.1-0.8-0.2c0.3-0.1,0.7-0.2,1-0.3l1.7-0.5c0.6-0.2,1.1-0.3,1.7-0.5c1.1-0.3,2.3-0.5,3.4-0.8
	V72H148h-0.4c-0.1,0-0.3,0-0.4,0c-0.6,0.1-1.2,0.1-1.8,0.1c-1.2,0.1-2.4,0.3-3.5,0.5c-0.2,0-0.4,0.1-0.7,0.1
	c0.1-0.2,0.3-0.3,0.4-0.4c0.1-0.3,0.3-0.5,0.4-0.7s0.3-0.4,0.5-0.6s0.3-0.4,0.5-0.6c0.4-0.4,0.7-0.8,1.1-1.2l-0.1-0.1
	c-0.5,0.2-1,0.5-1.5,0.8c-0.3,0.1-0.5,0.3-0.7,0.5s-0.4,0.3-0.7,0.5s-0.4,0.3-0.7,0.5s-0.4,0.4-0.6,0.7c0,0-0.1,0.1-0.1,0.2
	c-0.3,0.5-0.8,1-1.4,1.1l0,0c-1.1,0.2-2.1,0.4-3.2,0.6c0.2-0.2,0.3-0.4,0.5-0.6s0.3-0.5,0.3-0.7c0-0.3,0.1-0.5,0.3-0.8
	c0.1-0.3,0.2-0.5,0.3-0.7c0.1-0.3,0.2-0.5,0.3-0.8c0.2-0.5,0.5-1,0.7-1.5l-0.1-0.1c-0.4,0.3-0.9,0.7-1.2,1.1
	c-0.2,0.2-0.4,0.4-0.6,0.6c-0.2,0.2-0.4,0.4-0.5,0.6c-0.2,0.2-0.4,0.4-0.6,0.7c-0.2,0.2-0.3,0.5-0.3,0.8c-0.1,0.1,0,0.3-0.1,0.4
	c-0.1,0.6-0.6,1.1-1.2,1.3c-0.5,0.1-1.1,0.2-1.6,0.3c-0.7,0.1-1.3,0.3-2,0.5c0.2-0.2,0.3-0.4,0.4-0.6c0.2-0.2,0.3-0.5,0.3-0.7
	c0-0.3,0.1-0.5,0.3-0.8c0.1-0.3,0.2-0.5,0.3-0.7c0.1-0.3,0.2-0.5,0.3-0.8c0.2-0.5,0.5-1,0.7-1.5l-0.1-0.1c-0.4,0.3-0.9,0.7-1.2,1.1
	c-0.2,0.2-0.4,0.4-0.6,0.6c-0.2,0.2-0.4,0.4-0.5,0.6c-0.2,0.2-0.4,0.4-0.6,0.7c-0.2,0.2-0.3,0.5-0.3,0.8s-0.1,0.6-0.1,0.9
	s-0.2,0.6-0.5,0.8c-0.8,0.3-2.3,0.9-3.1,1.3c-1.1,0.5-2.1,1.1-3.2,1.8l0.1,0.3c1.2,0,2.4-0.1,3.6-0.2c1.2-0.2,2.3-0.3,3.5-0.7l0,0
	c0.4,0,0.7,0.1,0.9,0.4c0.1,0.2,0.3,0.5,0.5,0.7s0.4,0.4,0.6,0.5c0.3,0.1,0.5,0.2,0.8,0.3c0.3,0.1,0.5,0.2,0.8,0.3
	c0.3,0.1,0.5,0.2,0.8,0.3c0.5,0.2,1.1,0.3,1.6,0.4l0.1-0.1c-0.5-0.3-0.9-0.6-1.3-0.9c-0.2-0.2-0.4-0.3-0.6-0.5
	c-0.2-0.2-0.4-0.3-0.6-0.5c-0.2-0.2-0.4-0.3-0.5-0.5c-0.2-0.2-0.4-0.3-0.6-0.5c-0.3-0.1-0.5-0.3-0.8-0.3c0.6-0.2,1.2-0.4,1.7-0.6
	s1.1-0.4,1.6-0.6c0.6-0.2,1.2,0,1.6,0.4c0.2,0.2,0.4,0.5,0.5,0.7c0.2,0.2,0.4,0.4,0.6,0.5c0.3,0.1,0.5,0.2,0.8,0.3
	c0.3,0.1,0.5,0.2,0.8,0.3s0.5,0.2,0.8,0.3c0.5,0.2,1.1,0.3,1.6,0.4l0.1-0.1c-0.5-0.3-0.9-0.6-1.3-0.9c-0.2-0.2-0.4-0.3-0.6-0.5
	c-0.2-0.2-0.4-0.3-0.6-0.5c-0.2-0.2-0.4-0.3-0.5-0.5c-0.2-0.2-0.4-0.3-0.6-0.5c-0.4-0.2-0.9-0.4-1.5-0.6c1.1-0.4,2.2-0.8,3.3-1.1
	l0,0c0.7-0.2,1.4-0.1,1.9,0.4c0.1,0.1,0.3,0.3,0.4,0.4c0.2,0.2,0.5,0.3,0.8,0.3c0.3,0.1,0.6,0.1,0.9,0.2c0.3,0.1,0.6,0.1,0.8,0.1
	c0.3,0,0.5,0.1,0.8,0.1c0.6,0,1.1,0,1.7,0v-0.2C145.6,76.2,145.1,76.1,144.7,75.9z"/>
<linearGradient id="SVGID_10_" gradientUnits="userSpaceOnUse" x1="3156.1882" y1="-69.6287" x2="3162.1299" y2="-76.6675" gradientTransform="matrix(-1.9282 -0.5744 0.5967 -1.8562 6574.9126 2096.9751)">
	<stop  offset="0" style="stop-color:#FF4B3E"/>
	<stop  offset="1" style="stop-color:#972E07"/>
</linearGradient>
<path class="st9" d="M453.1,427.7c0,0,14.8-18.3-14-26.1c-1.2-0.3-2.5,0.4-2.8,1.6C434.5,408.9,431.7,424.6,453.1,427.7z"/>
<linearGradient id="SVGID_11_" gradientUnits="userSpaceOnUse" x1="3159.7844" y1="-73.1475" x2="3154.479" y2="-68.4215" gradientTransform="matrix(-1.9282 -0.5744 0.5967 -1.8562 6574.9126 2096.9751)">
	<stop  offset="0" style="stop-color:#972E07;stop-opacity:0"/>
	<stop  offset="1" style="stop-color:#582707"/>
</linearGradient>
<path class="st10" d="M436.3,403.2c0.2-0.6,0.7-1.2,1.3-1.4c8.8,11.3,15.5,26,15.5,26C431.7,424.6,434.5,408.9,436.3,403.2z"/>
<linearGradient id="SVGID_12_" gradientUnits="userSpaceOnUse" x1="3154.7979" y1="-70.0156" x2="3156.2302" y2="-71.8637" gradientTransform="matrix(-1.9282 -0.5744 0.5967 -1.8562 6574.9126 2096.9751)">
	<stop  offset="0" style="stop-color:#972E07"/>
	<stop  offset="1" style="stop-color:#582707"/>
</linearGradient>
<path class="st11" d="M440.5,410.7c0.2,0.1,0.4,0.2,0.7,0.3c0.3,0.1,0.4,0.2,0.7,0.3s0.4,0.1,0.7,0.2c0.3,0.1,0.4,0.1,0.6,0.3
	c0.2,0.1,0.4,0.3,0.6,0.4c-0.2-0.3-0.3-0.6-0.4-0.9l-0.8-1.4c-0.3-0.5-0.5-0.9-0.8-1.4c-0.5-0.9-1.1-1.8-1.7-2.7l0.2-0.2l0.6,0.6
	l0.3,0.3c0.1,0.1,0.2,0.2,0.3,0.3c0.3,0.4,0.7,0.8,1,1.3c0.7,0.8,1.3,1.7,2,2.6c0.1,0.2,0.3,0.3,0.4,0.5c0-0.2,0.1-0.3,0.1-0.5
	c0.1-0.3,0.1-0.4,0.2-0.7c0.1-0.3,0.1-0.5,0.1-0.7c0-0.3,0.1-0.5,0.1-0.7c0.1-0.5,0.1-0.9,0.1-1.4h0.1c0.2,0.5,0.3,0.9,0.4,1.4
	c0.1,0.3,0.1,0.5,0.1,0.8s0.1,0.5,0.1,0.8s0.1,0.5,0.1,0.8s0,0.5-0.1,0.8c0,0.1,0,0.1-0.1,0.1c-0.2,0.5-0.1,1.1,0.2,1.6l0,0
	c0.6,0.8,1.1,1.6,1.6,2.5c0-0.3,0.1-0.5,0.1-0.7c0.1-0.3,0.1-0.4,0.3-0.6c0.1-0.2,0.3-0.4,0.4-0.6s0.2-0.4,0.3-0.6
	c0.1-0.2,0.2-0.4,0.3-0.7c0.2-0.4,0.3-0.9,0.5-1.4h0.1c0.1,0.5,0.1,1,0.1,1.5c0,0.3-0.1,0.5-0.1,0.8c-0.1,0.3-0.1,0.5-0.1,0.8
	s-0.1,0.5-0.1,0.8s-0.1,0.5-0.3,0.7c-0.1,0.1-0.1,0.2-0.2,0.3c-0.4,0.4-0.4,1.1-0.1,1.6c0.3,0.4,0.6,0.8,0.8,1.3
	c0.3,0.5,0.6,1.1,0.9,1.6c0-0.2,0.1-0.4,0.1-0.6s0.1-0.4,0.3-0.6c0.1-0.2,0.3-0.4,0.4-0.6s0.2-0.4,0.3-0.6s0.2-0.4,0.3-0.7
	c0.2-0.4,0.3-0.9,0.5-1.4h0.1c0.1,0.5,0.1,1,0.1,1.5c0,0.3-0.1,0.5-0.1,0.8c-0.1,0.3-0.1,0.5-0.1,0.8c-0.1,0.3-0.1,0.5-0.1,0.8
	c-0.1,0.3-0.1,0.5-0.3,0.7c-0.1,0.2-0.3,0.4-0.5,0.6c-0.3,0.2-0.3,0.5-0.2,0.8c0.3,0.8,0.9,2.1,1.1,2.8c0.3,1,0.6,2.1,0.8,3.2
	l-0.2,0.1c-0.8-0.8-1.5-1.6-2.1-2.5s-1.3-1.8-1.8-2.6c0,0,0,0,0-0.1c-0.2-0.3-0.5-0.4-0.9-0.3c-0.3,0.1-0.5,0.1-0.8,0.1
	s-0.5,0-0.8-0.1s-0.5-0.2-0.8-0.3s-0.5-0.2-0.7-0.3c-0.3-0.1-0.4-0.2-0.7-0.3c-0.4-0.3-0.9-0.5-1.3-0.8l0.1-0.1
	c0.5,0.1,0.9,0.2,1.4,0.3c0.3,0.1,0.5,0.1,0.7,0.1c0.3,0,0.5,0.1,0.7,0.1c0.3,0,0.5,0,0.7,0c0.3,0,0.4,0,0.7,0.1
	c0.3,0.1,0.5,0.2,0.8,0.3c-0.3-0.5-0.5-1-0.8-1.5c-0.2-0.4-0.4-0.9-0.6-1.4c-0.3-0.5-0.8-0.8-1.3-0.8c-0.3,0-0.6,0-0.8,0.1
	c-0.3,0-0.5,0-0.8-0.1s-0.5-0.2-0.8-0.3c-0.3-0.1-0.5-0.2-0.7-0.3c-0.3-0.1-0.4-0.2-0.7-0.3c-0.4-0.3-0.9-0.5-1.3-0.8l0.1-0.1
	c0.5,0.1,0.9,0.2,1.4,0.3c0.3,0.1,0.5,0.1,0.7,0.1c0.3,0,0.5,0.1,0.7,0.1c0.3,0,0.5,0,0.7,0c0.3,0,0.4,0,0.7,0.1
	c0.4,0.1,0.9,0.3,1.3,0.6c-0.5-0.9-0.9-1.9-1.4-2.8v-0.1c-0.3-0.6-0.9-1-1.5-1c-0.2,0-0.4,0-0.5-0.1c-0.3-0.1-0.5-0.1-0.7-0.3
	c-0.2-0.1-0.4-0.3-0.6-0.4c-0.3-0.1-0.4-0.3-0.6-0.4c-0.2-0.2-0.4-0.3-0.6-0.5c-0.4-0.3-0.8-0.7-1.1-1.1l0.1-0.1
	C439.7,410.3,440.1,410.5,440.5,410.7z"/>
</svg>
