<?xml version="1.0" encoding="utf-8"?>
<!-- Generator: Adobe Illustrator 23.1.0, SVG Export Plug-In . SVG Version: 6.00 Build 0)  -->
<svg version="1.1" id="Layer_1" xmlns="http://www.w3.org/2000/svg" xmlns:xlink="http://www.w3.org/1999/xlink" x="0px" y="0px"
	 viewBox="0 0 400 400" style="enable-background:new 0 0 400 400;" xml:space="preserve">
<style type="text/css">
	.st0{fill:url(#SVGID_1_);}
	.st1{fill:url(#SVGID_2_);}
	.st2{fill:url(#SVGID_3_);}
	.st3{fill:url(#SVGID_4_);}
	.st4{fill:url(#SVGID_5_);}
	.st5{fill:url(#SVGID_6_);}
	.st6{fill:url(#SVGID_7_);}
	.st7{fill:url(#SVGID_8_);}
	.st8{fill:url(#SVGID_9_);}
	.st9{fill:url(#SVGID_10_);}
	.st10{fill:url(#SVGID_11_);}
	.st11{fill:url(#SVGID_12_);}
</style>
<linearGradient id="SVGID_1_" gradientUnits="userSpaceOnUse" x1="2495.0027" y1="-2946.1272" x2="2504.9868" y2="-2957.9543" gradientTransform="matrix(-0.9809 -0.2138 -0.2138 0.9809 2111.4536 3782.5564)">
	<stop  offset="0" style="stop-color:#FF4B3E"/>
	<stop  offset="1" style="stop-color:#972E07"/>
</linearGradient>
<path class="st0" d="M304.2,350.7c0,0,2.9,19.9-21.4,14c-1-0.3-1.6-1.3-1.4-2.3C282.6,357.2,287.2,344.1,304.2,350.7z"/>
<linearGradient id="SVGID_2_" gradientUnits="userSpaceOnUse" x1="2501.1206" y1="-2951.9473" x2="2492.2058" y2="-2944.0063" gradientTransform="matrix(-0.9809 -0.2138 -0.2138 0.9809 2111.4536 3782.5564)">
	<stop  offset="0" style="stop-color:#972E07;stop-opacity:0"/>
	<stop  offset="1" style="stop-color:#582707"/>
</linearGradient>
<path class="st1" d="M281.4,362.3c-0.1,0.6,0,1.2,0.3,1.6c11.3-4.9,22.4-13.2,22.4-13.2C287.2,344.1,282.6,357.2,281.4,362.3z"/>
<linearGradient id="SVGID_3_" gradientUnits="userSpaceOnUse" x1="2492.9436" y1="-2946.5647" x2="2495.3503" y2="-2949.6702" gradientTransform="matrix(-0.9809 -0.2138 -0.2138 0.9809 2111.4536 3782.5564)">
	<stop  offset="0" style="stop-color:#972E07"/>
	<stop  offset="1" style="stop-color:#582707"/>
</linearGradient>
<path class="st2" d="M287.8,358.3c0.2,0,0.4,0,0.6,0.1c0.2,0,0.4,0,0.6,0.1c0.2,0,0.4,0.1,0.6,0.2s0.4,0.1,0.6,0.1s0.4,0,0.6-0.1
	c-0.2,0.2-0.5,0.3-0.7,0.5L289,360c-0.4,0.3-0.8,0.5-1.2,0.7c-0.8,0.5-1.6,0.9-2.4,1.3l0.1,0.2l0.7-0.2l0.3-0.1
	c0.1,0,0.2-0.1,0.3-0.1c0.4-0.2,0.9-0.3,1.3-0.5c0.8-0.4,1.7-0.8,2.5-1.2c0.2-0.1,0.3-0.2,0.5-0.2c-0.1,0.1-0.1,0.3-0.2,0.4
	c0,0.2-0.1,0.4-0.2,0.6s-0.1,0.4-0.2,0.6s-0.2,0.4-0.2,0.6c-0.2,0.4-0.3,0.8-0.5,1.2l0.1,0.1c0.3-0.3,0.6-0.6,0.9-0.9
	c0.1-0.2,0.3-0.3,0.4-0.5s0.3-0.4,0.4-0.5c0.1-0.2,0.3-0.4,0.4-0.6s0.2-0.4,0.3-0.6v-0.1c0.1-0.5,0.4-0.9,0.8-1.1l0,0
	c0.7-0.4,1.5-0.8,2.2-1.2c-0.1,0.2-0.2,0.4-0.2,0.6c-0.1,0.2-0.1,0.4-0.1,0.6s0,0.4,0,0.6s0,0.4-0.1,0.6c0,0.2,0,0.4-0.1,0.6
	c-0.1,0.4-0.2,0.8-0.2,1.3h0.1c0.3-0.4,0.5-0.7,0.7-1.1c0.1-0.2,0.2-0.4,0.3-0.6c0.1-0.2,0.2-0.4,0.2-0.6c0.1-0.2,0.2-0.4,0.2-0.6
	c0.1-0.2,0.1-0.4,0.1-0.7c0-0.1,0-0.2,0-0.3c-0.1-0.5,0.2-1,0.6-1.2s0.8-0.4,1.1-0.6c0.5-0.3,0.9-0.5,1.4-0.8
	c-0.1,0.2-0.1,0.3-0.2,0.5s-0.1,0.4-0.1,0.6s0,0.4,0,0.6s0,0.4-0.1,0.6c0,0.2,0,0.4-0.1,0.6c-0.1,0.4-0.2,0.8-0.2,1.3h0.1
	c0.3-0.4,0.5-0.7,0.7-1.1c0.1-0.2,0.2-0.4,0.3-0.6c0.1-0.2,0.2-0.4,0.2-0.6c0.1-0.2,0.2-0.4,0.2-0.6c0.1-0.2,0.1-0.4,0.1-0.7
	c0-0.2,0-0.5-0.1-0.7c-0.1-0.3,0-0.5,0.2-0.7c0.5-0.4,1.5-1.2,2-1.7c0.7-0.6,1.3-1.3,1.9-2.1l-0.1-0.2c-0.9,0.3-1.8,0.6-2.6,1
	c-0.8,0.4-1.6,0.8-2.4,1.3l0,0c-0.3,0.1-0.6,0.1-0.8-0.1c-0.1-0.2-0.3-0.3-0.5-0.4s-0.4-0.2-0.6-0.2s-0.4-0.1-0.6-0.1
	s-0.4-0.1-0.6-0.1s-0.4,0-0.6,0c-0.4,0-0.9,0-1.3,0.1v0.1c0.4,0.1,0.8,0.3,1.2,0.4c0.2,0.1,0.4,0.1,0.5,0.2c0.2,0.1,0.4,0.2,0.5,0.3
	c0.2,0.1,0.3,0.2,0.5,0.3c0.2,0.1,0.3,0.2,0.5,0.2s0.4,0.1,0.6,0.1c-0.4,0.3-0.8,0.5-1.2,0.8c-0.3,0.2-0.7,0.5-1.1,0.8
	s-0.9,0.3-1.3,0c-0.2-0.1-0.4-0.3-0.6-0.4s-0.4-0.2-0.6-0.2s-0.4-0.1-0.6-0.1s-0.4-0.1-0.6-0.1s-0.4,0-0.6,0c-0.4,0-0.9,0-1.3,0.1
	v0.1c0.4,0.1,0.8,0.3,1.2,0.4c0.2,0.1,0.4,0.1,0.5,0.2c0.2,0.1,0.4,0.2,0.5,0.3c0.2,0.1,0.3,0.2,0.5,0.3c0.2,0.1,0.3,0.2,0.5,0.2
	c0.4,0.1,0.8,0.1,1.2,0.1c-0.8,0.5-1.5,1.1-2.3,1.6l0,0c-0.5,0.3-1,0.4-1.5,0.1c-0.1-0.1-0.3-0.1-0.4-0.2c-0.2-0.1-0.4-0.1-0.6-0.1
	s-0.4,0-0.7,0.1c-0.3,0.1-0.4,0-0.6,0.1c-0.2,0-0.4,0.1-0.6,0.1c-0.4,0.1-0.8,0.2-1.2,0.4v0.1C287,358.3,287.4,358.3,287.8,358.3z"
	/>
<linearGradient id="SVGID_4_" gradientUnits="userSpaceOnUse" x1="1226.4874" y1="-517.4019" x2="1240.5951" y2="-534.1141" gradientTransform="matrix(0.89 0.4645 0.4645 -0.89 -486.9861 -959.9531)">
	<stop  offset="0" style="stop-color:#FF774F"/>
	<stop  offset="1" style="stop-color:#97310A"/>
</linearGradient>
<path class="st3" d="M347.2,78.2c0,0,3.4-28.2,34.3-11.1c1.3,0.7,1.7,2.4,1,3.7C379.1,77.2,367.9,93.4,347.2,78.2z"/>
<linearGradient id="SVGID_5_" gradientUnits="userSpaceOnUse" x1="1235.0995" y1="-525.6761" x2="1222.5023" y2="-514.4551" gradientTransform="matrix(0.89 0.4645 0.4645 -0.89 -486.9861 -959.9531)">
	<stop  offset="0" style="stop-color:#97310A;stop-opacity:0"/>
	<stop  offset="1" style="stop-color:#582707"/>
</linearGradient>
<path class="st4" d="M382.5,70.8c0.4-0.8,0.4-1.6,0.2-2.3c-17.2,2.5-35.5,9.7-35.5,9.7C367.9,93.4,379.1,77.2,382.5,70.8z"/>
<linearGradient id="SVGID_6_" gradientUnits="userSpaceOnUse" x1="1223.5513" y1="-518.0372" x2="1226.952" y2="-522.4253" gradientTransform="matrix(0.89 0.4645 0.4645 -0.89 -486.9861 -959.9531)">
	<stop  offset="0" style="stop-color:#97310A"/>
	<stop  offset="1" style="stop-color:#582707"/>
</linearGradient>
<path class="st5" d="M372.4,73.8c-0.3-0.1-0.5-0.2-0.8-0.3c-0.3-0.1-0.5-0.2-0.8-0.3c-0.3-0.1-0.5-0.3-0.7-0.4
	c-0.2-0.2-0.5-0.3-0.8-0.3c-0.3-0.1-0.5-0.1-0.8-0.1c0.4-0.1,0.8-0.3,1.1-0.4l1.9-0.6c0.6-0.2,1.2-0.4,1.9-0.6
	c1.2-0.4,2.5-0.7,3.7-0.9v-0.3h-1h-0.5c-0.2,0-0.3,0-0.5,0c-0.6,0.1-1.3,0.1-1.9,0.2c-1.3,0.2-2.6,0.4-3.9,0.6
	c-0.3,0-0.5,0.1-0.7,0.1c0.1-0.2,0.3-0.3,0.4-0.5c0.1-0.3,0.3-0.5,0.4-0.8c0.2-0.3,0.3-0.5,0.5-0.7s0.3-0.5,0.5-0.7
	c0.4-0.5,0.8-0.9,1.2-1.4l-0.1-0.1c-0.5,0.3-1.1,0.6-1.6,0.9c-0.3,0.2-0.5,0.4-0.8,0.5c-0.2,0.2-0.5,0.4-0.7,0.6s-0.5,0.4-0.7,0.6
	s-0.4,0.5-0.6,0.8c0,0.1-0.1,0.1-0.1,0.2c-0.3,0.6-0.8,1.1-1.5,1.2l0,0c-1.2,0.3-2.3,0.5-3.5,0.8c0.2-0.2,0.3-0.5,0.5-0.7
	c0.1-0.3,0.3-0.5,0.3-0.8c0.1-0.3,0.1-0.6,0.2-0.8c0.1-0.3,0.2-0.5,0.3-0.8c0.1-0.3,0.2-0.5,0.3-0.8c0.2-0.5,0.5-1.1,0.8-1.6
	l-0.1-0.1c-0.5,0.4-0.9,0.8-1.3,1.3c-0.2,0.2-0.4,0.5-0.6,0.7c-0.2,0.3-0.4,0.5-0.5,0.8c-0.2,0.3-0.4,0.5-0.5,0.8
	c-0.2,0.3-0.3,0.5-0.4,0.9c0,0.1,0,0.3-0.1,0.4c-0.1,0.7-0.6,1.3-1.3,1.4c-0.6,0.1-1.2,0.3-1.7,0.4c-0.7,0.2-1.5,0.4-2.2,0.6
	c0.2-0.2,0.3-0.4,0.4-0.6c0.1-0.3,0.3-0.5,0.3-0.8c0.1-0.3,0.1-0.6,0.2-0.8c0.1-0.3,0.2-0.5,0.3-0.8c0.1-0.3,0.2-0.5,0.3-0.8
	c0.2-0.5,0.5-1.1,0.8-1.6l-0.1-0.1c-0.5,0.4-0.9,0.8-1.3,1.3c-0.2,0.2-0.4,0.5-0.6,0.7c-0.2,0.3-0.4,0.5-0.5,0.8s-0.4,0.5-0.5,0.8
	c-0.2,0.3-0.3,0.5-0.4,0.9c-0.1,0.3-0.1,0.6-0.1,1s-0.2,0.7-0.5,0.9c-0.9,0.4-2.5,1.1-3.4,1.6c-1.2,0.6-2.3,1.3-3.4,2.1l0.1,0.3
	c1.3,0,2.7-0.2,3.9-0.4c1.3-0.2,2.6-0.5,3.8-0.8c0,0,0,0,0.1,0c0.4-0.1,0.8,0.1,1,0.5c0.1,0.3,0.3,0.5,0.5,0.7s0.5,0.4,0.7,0.5
	c0.3,0.1,0.6,0.3,0.8,0.4c0.3,0.1,0.5,0.3,0.8,0.4s0.6,0.2,0.9,0.3c0.6,0.2,1.2,0.3,1.8,0.4l0.1-0.2c-0.5-0.3-1-0.6-1.4-1
	c-0.2-0.2-0.5-0.3-0.7-0.5s-0.5-0.3-0.7-0.5s-0.4-0.4-0.6-0.6s-0.4-0.4-0.6-0.5c-0.3-0.1-0.5-0.3-0.8-0.4c0.6-0.2,1.3-0.4,1.9-0.7
	c0.5-0.2,1.2-0.5,1.8-0.7c0.6-0.3,1.4-0.1,1.8,0.4c0.2,0.3,0.4,0.5,0.6,0.7s0.5,0.4,0.7,0.5c0.3,0.1,0.6,0.3,0.8,0.4
	c0.3,0.1,0.5,0.3,0.8,0.4s0.6,0.2,0.9,0.3c0.6,0.2,1.2,0.3,1.8,0.4l0.1-0.2c-0.5-0.3-1-0.6-1.4-1c-0.2-0.2-0.5-0.3-0.7-0.5
	s-0.5-0.3-0.7-0.5s-0.4-0.4-0.6-0.6s-0.4-0.4-0.6-0.5c-0.5-0.3-1-0.5-1.6-0.6c1.2-0.4,2.4-0.9,3.7-1.3l0,0c0.7-0.3,1.6-0.1,2.1,0.4
	c0.2,0.2,0.3,0.3,0.5,0.4c0.3,0.2,0.5,0.3,0.8,0.3s0.6,0.1,0.9,0.2s0.6,0.1,0.9,0.2c0.3,0,0.6,0.1,0.9,0.1c0.6,0,1.2,0,1.8-0.1v-0.2
	C373.5,74.2,372.9,74,372.4,73.8z"/>
<linearGradient id="SVGID_7_" gradientUnits="userSpaceOnUse" x1="6349.6782" y1="7358.1421" x2="6375.9492" y2="7327.0215" gradientTransform="matrix(-0.1057 -0.6184 -0.6085 0.1147 5334.9941 3300.5859)">
	<stop  offset="0" style="stop-color:#FFA737"/>
	<stop  offset="1" style="stop-color:#E74315"/>
</linearGradient>
<path class="st6" d="M205,227.9c0,0-27.3,17.5-32.9-23.6c-0.2-1.7,0.9-3.3,2.6-3.6C182.8,199.1,204.6,197.7,205,227.9z"/>
<linearGradient id="SVGID_8_" gradientUnits="userSpaceOnUse" x1="6365.7764" y1="7342.771" x2="6341.7295" y2="7364.1914" gradientTransform="matrix(-0.1057 -0.6184 -0.6085 0.1147 5334.9941 3300.5859)">
	<stop  offset="0" style="stop-color:#E74315;stop-opacity:0"/>
	<stop  offset="0.214" style="stop-color:#F96117;stop-opacity:0.2157"/>
	<stop  offset="0.5597" style="stop-color:#F12D0F;stop-opacity:0.5608"/>
	<stop  offset="0.8338" style="stop-color:#B51C0F;stop-opacity:0.8353"/>
	<stop  offset="1" style="stop-color:#CC0200"/>
</linearGradient>
<path class="st7" d="M174.7,200.7c-0.9,0.2-1.7,0.8-2.2,1.5c13.8,14.1,32.4,25.7,32.4,25.7C204.6,197.7,182.8,199.1,174.7,200.7z"/>
<linearGradient id="SVGID_9_" gradientUnits="userSpaceOnUse" x1="2344.7871" y1="7443.7661" x2="2359.4377" y2="7435.5249" gradientTransform="matrix(0.174 -0.6029 -0.59 -0.1703 4171.4238 2901.8083)">
	<stop  offset="0" style="stop-color:#E74315"/>
	<stop  offset="1" style="stop-color:#CC0200"/>
</linearGradient>
<path class="st8" d="M184.2,207.8c0.1,0.3,0.2,0.6,0.3,1c0.1,0.3,0.1,0.6,0.2,1c0.1,0.3,0.1,0.7,0.1,1s0.1,0.6,0.2,1
	c0.1,0.3,0.3,0.6,0.4,0.9c-0.4-0.3-0.7-0.5-1.1-0.8l-1.8-1.3c-0.6-0.4-1.2-0.9-1.7-1.3c-1.2-0.9-2.3-1.8-3.3-2.8l-0.3,0.2l0.7,0.9
	l0.3,0.4c0.1,0.1,0.2,0.3,0.4,0.4c0.5,0.5,1,1.1,1.5,1.6c1,1.1,2.1,2.1,3.2,3.1c0.2,0.2,0.4,0.4,0.6,0.6c-0.2,0-0.5,0-0.7,0
	c-0.3,0.1-0.6,0.1-1,0.2c-0.3,0-0.6,0-1,0.1c-0.3,0-0.6,0-1,0c-0.7,0-1.3,0-2-0.1l-0.1,0.2c0.6,0.3,1.2,0.6,1.9,0.8
	c0.3,0.1,0.7,0.2,1,0.3s0.7,0.1,1,0.2s0.7,0.1,1,0.2c0.4,0.1,0.7,0.1,1.1,0c0.1,0,0.1,0,0.2-0.1c0.8-0.2,1.5,0,2.1,0.5l0,0
	c1,0.9,2,1.7,3.1,2.6c-0.3,0-0.6,0-1,0.1c-0.3,0.1-0.6,0.1-0.9,0.3c-0.3,0.1-0.6,0.3-0.9,0.4s-0.6,0.2-0.9,0.3
	c-0.3,0.1-0.6,0.2-1,0.3c-0.6,0.2-1.3,0.3-2,0.4v0.2c0.7,0.2,1.3,0.3,2,0.3c0.3,0,0.7,0,1,0s0.7,0,1-0.1c0.3,0,0.7,0,1.1-0.1
	s0.7-0.1,1-0.3c0.1-0.1,0.3-0.1,0.4-0.3c0.7-0.4,1.5-0.3,2.1,0.2c0.5,0.4,1,0.9,1.5,1.3c0.6,0.6,1.3,1.1,2,1.6c-0.3,0-0.6,0-0.8,0.1
	c-0.3,0.1-0.6,0.1-0.9,0.3c-0.3,0.1-0.6,0.3-0.9,0.4s-0.6,0.2-0.9,0.3c-0.3,0.1-0.6,0.2-1,0.3c-0.6,0.2-1.3,0.3-2,0.4v0.2
	c0.7,0.2,1.3,0.3,2,0.3c0.3,0,0.7,0,1,0s0.7,0,1-0.1c0.3,0,0.7,0,1.1-0.1c0.4,0,0.7-0.1,1-0.3s0.6-0.4,0.9-0.6
	c0.3-0.3,0.8-0.3,1.1-0.1c1,0.6,2.7,1.5,3.6,2c1.3,0.6,2.7,1.2,4.2,1.6l0.2-0.3c-0.9-1.2-2-2.3-3-3.3c-1.1-1-2.2-2-3.3-2.9
	c0,0,0,0-0.1-0.1c-0.4-0.3-0.4-0.8-0.3-1.2c0.1-0.3,0.3-0.7,0.3-1c0.1-0.4,0.1-0.7,0-1.1s-0.2-0.7-0.2-1.1c-0.1-0.3-0.1-0.7-0.2-1
	s-0.2-0.7-0.3-1c-0.2-0.7-0.5-1.3-0.8-1.9l-0.2,0.1c0,0.7,0.1,1.4,0.1,2c0,0.3,0,0.7,0,1s0,0.7,0,1s-0.1,0.7-0.1,1
	c-0.1,0.3-0.1,0.6,0,1s0.1,0.7,0.2,1.1c-0.6-0.4-1.3-0.9-1.9-1.3c-0.5-0.3-1.2-0.8-1.8-1.1c-0.6-0.4-1-1.2-0.8-2
	c0.1-0.4,0.1-0.8,0.2-1.1c0.1-0.4,0.1-0.7,0-1.1s-0.2-0.7-0.2-1.1c-0.1-0.3-0.1-0.7-0.2-1s-0.2-0.7-0.3-1c-0.2-0.7-0.5-1.3-0.8-1.9
	l-0.2,0.1c0,0.7,0.1,1.4,0.1,2c0,0.3,0,0.7,0,1s0,0.7,0,1s-0.1,0.7-0.1,1c-0.1,0.3-0.1,0.6,0,1c0.1,0.6,0.2,1.2,0.6,1.9
	c-1.2-0.8-2.4-1.6-3.6-2.4h-0.1c-0.7-0.5-1.2-1.3-1.1-2.2c0-0.3,0-0.5,0-0.7c0-0.4-0.1-0.7-0.3-1s-0.3-0.6-0.5-1
	c-0.1-0.3-0.3-0.6-0.5-1c-0.2-0.3-0.4-0.6-0.6-0.9c-0.4-0.6-0.8-1.1-1.3-1.6l-0.2,0.1C183.8,206.5,184,207.1,184.2,207.8z"/>
<linearGradient id="SVGID_10_" gradientUnits="userSpaceOnUse" x1="3155.7144" y1="2233.3215" x2="3173.533" y2="2212.2136" gradientTransform="matrix(0.1768 -0.9882 -0.9882 -0.1768 1693.5726 3561.5371)">
	<stop  offset="0" style="stop-color:#FFCE65"/>
	<stop  offset="1" style="stop-color:#F49B2D"/>
</linearGradient>
<path class="st9" d="M60,65.6c0,0-34.7,7.2-25.2-36.8c0.4-1.8,2.2-3,4-2.7C47.7,27.7,70.8,34.7,60,65.6z"/>
<linearGradient id="SVGID_11_" gradientUnits="userSpaceOnUse" x1="3166.5891" y1="2222.844" x2="3150.2791" y2="2237.3723" gradientTransform="matrix(0.1768 -0.9882 -0.9882 -0.1768 1693.5726 3561.5371)">
	<stop  offset="0" style="stop-color:#F49B2D;stop-opacity:0"/>
	<stop  offset="0.214" style="stop-color:#F2792E;stop-opacity:0.2157"/>
	<stop  offset="0.5597" style="stop-color:#E83000;stop-opacity:0.5608"/>
	<stop  offset="0.8338" style="stop-color:#FF5D49;stop-opacity:0.8353"/>
	<stop  offset="1" style="stop-color:#D32D39"/>
</linearGradient>
<path class="st10" d="M38.9,26.1c-1-0.2-2,0.1-2.8,0.7C45.2,46.5,60,65.6,60,65.6C70.8,34.7,47.7,27.7,38.9,26.1z"/>
<linearGradient id="SVGID_12_" gradientUnits="userSpaceOnUse" x1="1748.9231" y1="1410.3495" x2="1758.86" y2="1404.7599" gradientTransform="matrix(0.5938 -0.8046 -0.8046 -0.5938 141.2014 2296.2151)">
	<stop  offset="0" style="stop-color:#F49B2D"/>
	<stop  offset="1" style="stop-color:#D32D39"/>
</linearGradient>
<path class="st11" d="M46,37.1c0,0.4-0.1,0.7-0.1,1.1s-0.1,0.7-0.1,1.1c-0.1,0.3-0.2,0.7-0.3,1s-0.1,0.7-0.1,1s0.1,0.7,0.1,1.1
	c-0.3-0.4-0.6-0.8-0.8-1.2l-1.4-2c-0.4-0.6-0.9-1.3-1.3-2c-0.9-1.3-1.7-2.7-2.4-4.1l-0.3,0.1l0.4,1.1l0.2,0.6
	c0.1,0.2,0.1,0.4,0.2,0.6c0.3,0.8,0.6,1.5,1,2.2c0.7,1.5,1.4,2.9,2.1,4.4c0.1,0.3,0.3,0.6,0.4,0.8c-0.2-0.1-0.5-0.2-0.7-0.2
	c-0.3-0.1-0.7-0.1-1.1-0.2s-0.7-0.2-1-0.3s-0.7-0.2-1-0.4c-0.7-0.2-1.3-0.5-2-0.8l-0.1,0.2c0.5,0.6,1.1,1.1,1.7,1.6
	c0.3,0.3,0.6,0.5,0.9,0.7c0.3,0.2,0.6,0.4,1,0.6c0.3,0.2,0.7,0.4,1,0.6s0.7,0.3,1.1,0.4c0.1,0,0.1,0,0.2,0c0.8,0.1,1.6,0.6,2,1.3
	l0,0c0.7,1.3,1.5,2.5,2.2,3.8c-0.3-0.1-0.7-0.2-1-0.3c-0.4-0.1-0.7-0.1-1-0.1s-0.7,0.1-1.1,0.1c-0.4,0-0.7,0-1.1-0.1
	c-0.4,0-0.7-0.1-1.1-0.1c-0.7-0.1-1.5-0.2-2.2-0.3l-0.1,0.2c0.6,0.4,1.3,0.8,2,1.1c0.3,0.2,0.7,0.3,1.1,0.4c0.4,0.1,0.7,0.3,1.1,0.4
	c0.4,0.1,0.7,0.3,1.1,0.4c0.4,0.1,0.8,0.1,1.2,0.1c0.2,0,0.4,0,0.5-0.1c0.8-0.2,1.7,0.2,2.1,1c0.4,0.6,0.7,1.3,1.1,1.9
	c0.5,0.8,1,1.6,1.5,2.4c-0.3-0.1-0.6-0.2-0.9-0.3c-0.4-0.1-0.7-0.1-1-0.1s-0.7,0.1-1.1,0.1c-0.4,0-0.7,0-1.1-0.1
	c-0.4,0-0.7-0.1-1.1-0.1c-0.7-0.1-1.5-0.2-2.2-0.3l-0.1,0.2c0.6,0.4,1.3,0.8,2,1.1c0.3,0.2,0.7,0.3,1.1,0.4c0.4,0.1,0.7,0.3,1.1,0.4
	c0.4,0.1,0.7,0.3,1.1,0.4c0.4,0.1,0.8,0.1,1.2,0.1c0.4-0.1,0.8-0.1,1.2-0.3s0.9-0.1,1.2,0.3c0.8,0.9,2.2,2.6,3,3.4
	c1.1,1.2,2.4,2.3,3.7,3.3l0.3-0.2c-0.5-1.6-1.2-3.1-1.9-4.6s-1.5-2.9-2.3-4.3v-0.1c-0.3-0.4-0.2-1,0.2-1.4c0.3-0.3,0.5-0.6,0.7-0.9
	s0.3-0.7,0.4-1.1c0.1-0.4,0.1-0.8,0.2-1.2c0.1-0.4,0.1-0.8,0.1-1.1c0-0.4,0.1-0.8,0.1-1.1c0-0.8-0.1-1.5-0.1-2.3h-0.2
	c-0.2,0.7-0.4,1.4-0.7,2.1c-0.1,0.3-0.3,0.7-0.4,1c-0.1,0.3-0.3,0.7-0.4,1c-0.1,0.3-0.3,0.6-0.5,1c-0.2,0.3-0.3,0.6-0.4,1
	c-0.1,0.4-0.1,0.8-0.2,1.2c-0.5-0.7-1-1.4-1.5-2c-0.4-0.5-1-1.2-1.5-1.9s-0.6-1.6-0.1-2.3c0.2-0.3,0.4-0.7,0.6-1
	c0.2-0.3,0.3-0.7,0.4-1.1c0.1-0.4,0.1-0.8,0.2-1.2c0.1-0.4,0.1-0.8,0.1-1.1c0-0.4,0.1-0.8,0.1-1.1c0-0.8,0-1.5-0.1-2.3h-0.2
	c-0.2,0.7-0.4,1.4-0.7,2.1c-0.1,0.3-0.3,0.7-0.4,1c-0.1,0.3-0.3,0.7-0.4,1c-0.1,0.3-0.3,0.6-0.5,1c-0.2,0.3-0.3,0.6-0.4,1
	c-0.1,0.7-0.2,1.3-0.1,2.2c-1-1.3-1.9-2.6-2.8-3.9V45c-0.6-0.8-0.7-1.8-0.3-2.7c0.1-0.3,0.2-0.5,0.3-0.8c0.1-0.4,0.1-0.8,0.1-1.1
	c0-0.4-0.1-0.8-0.1-1.2s-0.1-0.8-0.1-1.1c-0.1-0.4-0.1-0.8-0.2-1.1c-0.2-0.7-0.4-1.5-0.7-2.2h-0.5C46.1,35.6,46.1,36.3,46,37.1z"/>
</svg>
