<?xml version="1.0" encoding="utf-8"?>
<!-- Generator: Adobe Illustrator 23.1.0, SVG Export Plug-In . SVG Version: 6.00 Build 0)  -->
<svg version="1.1"
	 id="svg2" xmlns:cc="http://creativecommons.org/ns#" xmlns:dc="http://purl.org/dc/elements/1.1/" xmlns:inkscape="http://www.inkscape.org/namespaces/inkscape" xmlns:rdf="http://www.w3.org/1999/02/22-rdf-syntax-ns#" xmlns:sodipodi="http://sodipodi.sourceforge.net/DTD/sodipodi-0.dtd" xmlns:svg="http://www.w3.org/2000/svg"
	 xmlns="http://www.w3.org/2000/svg" xmlns:xlink="http://www.w3.org/1999/xlink" x="0px" y="0px" viewBox="0 0 3151.2 3655.7"
	 style="enable-background:new 0 0 3151.2 3655.7;" xml:space="preserve">
<style type="text/css">
	.st0{fill:#FFFFFF;}
	.st1{fill:#DB8A9F;}
	.st2{fill:#F9C6D5;}
	.st3{fill:#58595B;}
	.st4{fill:#CED0D1;}
	.st5{fill:#B51521;}
	.st6{fill:#EA1C24;}
</style>
<sodipodi:namedview  bordercolor="#666666" borderopacity="1" gridtolerance="10" guidetolerance="10" id="namedview4" inkscape:pageopacity="0" inkscape:pageshadow="2" inkscape:window-height="480" inkscape:window-width="640" objecttolerance="10" pagecolor="#ffffff">
	</sodipodi:namedview>
<g id="g10" transform="matrix(1.3333333,0,0,-1.3333333,0,6209.6133)" inkscape:groupmode="layer" inkscape:label="ink_ext_XXXXXX">
	<g id="g12" transform="scale(0.1)">
		<path id="path74" class="st0" d="M21846.3,22950.7c-305.7-337.1-613.4-661.3-922-972.9
			C21232.9,22289.4,21540.6,22613.6,21846.3,22950.7"/>
		<path id="path314" class="st0" d="M18809.4,44618.8c438.7-185.2,864-375.1,1275.6-568.1
			C19673.4,44243.7,19248,44433.7,18809.4,44618.8"/>
		<path id="path316" d="M18809.4,44618.8c438.7-185.2,864-375.1,1275.6-568.1C19673.4,44243.7,19248,44433.7,18809.4,44618.8"/>
		<path id="path318" class="st0" d="M20085,44050.8c274.4-128.7,542.8-258.8,805-389.7C20627.8,43792,20359.4,43922,20085,44050.8"
			/>
		<path id="path320" d="M20085,44050.8c274.4-128.7,542.8-258.8,805-389.7C20627.8,43792,20359.4,43922,20085,44050.8"/>
		<path id="path338" class="st0" d="M22027.7,43067.3c365.2-198.9,716.1-398.1,1052.5-596.2
			C22743.8,42669.2,22392.9,42868.5,22027.7,43067.3"/>
		<path id="path342" class="st0" d="M21278.6,43464.1c255.9-131.8,505.7-264.1,749.1-396.7
			C21784.3,43200,21534.5,43332.3,21278.6,43464.1"/>
		<path id="path344" d="M21278.6,43464.1c255.9-131.8,505.7-264.1,749.1-396.7C21784.3,43200,21534.5,43332.3,21278.6,43464.1"/>
		<path id="path384" class="st1" d="M2384.4,28183.4c-19,87-38.1,178.6-95.6,219.2c65.5-186.1,81.4-482.3-27.3-679.7
			c-21.1,269.4-18,581.5-129.3,766c63.7-217.8,52.5-573.8-33.9-815.6c-2.3,150.5-16.5,310.4-36,459.3
			c-18.6,141.9-35.6,300.4-125,381.3c72.5-217.1,145.1-525,37.8-809.8c10.9,205.1-27.6,377.1-78.2,539.4
			c-45,144.4-97.4,288.5-190.8,380c57.8-131.2,115.7-286.3,119.4-444.4c-122.3,332.9-489.4,522.6-417.3,976
			c85.8-130.5,151.1-276.9,255.4-393.2c-57.5,144.9-146.8,289.3-192,428.7c125.8-150.6,254.1-323.5,381-458.2
			c-47.3,163.3-164.4,296.7-218.4,439.9c142-138.2,242-308.8,376-453.2c-88,222.1-218.5,411.3-334.6,611.6
			c260.6-169.7,386.9-443.2,564.2-677.3c-139.7,523.3-501.1,875-836.9,1246.7c515.9-251.4,812.5-787.4,1023-1310.1
			c110.3-274.1,304.4-731.7-34.2-942.1C2420.6,27837.6,2417.7,28030.6,2384.4,28183.4L2384.4,28183.4z M2300.9,27302.3
			c108,208.5,339.2,372.5,363.9,647.1c20.2,223.5-69.8,459.8-128.7,649.2c-129.9,418.5-287.4,748-580.6,1048.1
			c-173.4,177.3-469.4,405-845,351.7c14.3-44.8,92.1-98.3,123.4-152.5c62.2-108,68.9-230.4,65.9-368.4
			c-3.1-141.3-60.8-277.9-65-424.7c-7.6-266.4,118.7-404.3,232.4-591.4c107.7-177.3,229.7-335.8,279.4-555
			c55.8-246.2-5.4-512.7,38.3-741.7c41.5-217.1,163-381.1,226.9-591.2C2116.1,26808.5,2172.2,27053.8,2300.9,27302.3"/>
		<path id="path410" class="st1" d="M1031.7,29138.8c-79.6,54.8-293.8,78.3-394.2,56.7c208-50.7,264.8-215.9,318.5-372
			c49.7-7,94.4-29.7,145.8-17.7C1115.1,28899.7,1070.8,29008.4,1031.7,29138.8"/>
		<path id="path416" class="st1" d="M1101.8,29366.1c-104.1,87-314.5,18.9-428.2-20.8c171.5,55.1,295.9,236.3,495.7,238.3
			c28.7-113.7,31.2-303.5-34.2-405.9"/>
		<path id="path498" class="st0" d="M479.5,29431.4c99.7,46.9,192.5,91.2,269.4,166.8c6.4,6.3,18.5-3.1,12.4-9.8
			c-71.2-76.8-165.8-148.3-276.5-171C475.3,29415.5,471.1,29427.4,479.5,29431.4"/>
		<path id="path510_2_" d="M-892.6,30689.4"/>
		<path id="path516" d="M898.6,28408.8c-91.7,12-202.7-27.9-296.9-13.3C646,28455.9,840.6,28474.3,898.6,28408.8"/>
		<path id="path530" d="M2288.8,28402.6c65.5-186.1,81.4-482.3-27.3-679.7c-21.1,269.4-18,581.5-129.3,766
			c63.7-217.8,52.5-573.8-33.9-815.6c-2.3,150.5-16.5,310.4-36,459.3c-18.6,141.9-35.6,300.4-125,381.3
			c72.5-217.1,145.1-525,37.8-809.8c10.9,205.1-27.6,377.1-78.2,539.4c-45,144.4-97.4,288.5-190.8,380
			c57.8-131.2,115.7-286.3,119.4-444.4c-122.3,332.9-489.4,522.6-417.3,976c85.8-130.5,151.1-276.9,255.4-393.2
			c-57.5,144.9-146.8,289.3-192,428.7c125.8-150.6,254.1-323.5,381-458.2c-47.3,163.3-164.4,296.7-218.4,439.9
			c142-138.2,242-308.8,376-453.2c-88,222.1-218.5,411.3-334.6,611.6c260.6-169.7,386.9-443.2,564.2-677.3
			c-139.7,523.3-501.1,875-836.9,1246.7c515.9-251.4,812.5-787.4,1023-1310.1c110.3-274.1,304.4-731.7-34.2-942.1
			c28.9,189.8,26,382.8-7.3,535.7C2365.4,28270.4,2346.3,28362.1,2288.8,28402.6"/>
		<path id="path566" class="st2" d="M4597.5,22820.7c0,0.6,0.5,1,0,1.9c90,230.8,134.6,507.6,10.8,816
			c-202.6,504.4-446.7,1102.5-737.8,1440.2c219.3-175.3,456.4-363.2,670.1-583.5c224.5-231.5,507.1-535.3,564.7-871.9
			c-73,147.7-162.9,306.7-268.2,386.6c80.7-155.3,139.9-345.2,127.4-487.4c-67.6,162-129.9,331.6-246.2,424.5
			C4981.4,23511.8,4860.7,23049.3,4597.5,22820.7"/>
		<path id="path568" class="st1" d="M7594.7,22434.5c-53.7,72.9-109.5,149.9-182.2,171.4c139.4-149.4,274.4-410.2,247.5-614.6
			c-129.3,235.4-252.3,515.2-435.9,651.3c150.4-178.3,283.1-499.4,295.9-737.7c-62.9,134-141.4,273.2-220.6,401.2
			c-75.5,122.1-156.1,259.4-276.5,308.7c158.7-175.3,354.2-431.9,363.9-714c-72.1,186.1-179.2,330-294.3,462
			c-102.4,117.5-211.9,232.8-340.5,290.6c109.6-102.3,229-226.1,296.4-366.4c-254.3,266-690.7,341.3-803.1,765.1
			c136.8-94.7,259.9-208.7,409.1-285.8c-114.8,114.8-260.6,220.9-361.2,333.8c184.1-102.3,379.7-223.9,558.5-311.6
			c-112.3,133.8-281,222.9-391.6,337c194.9-87.1,361.8-213.8,551.5-308.4c-175.9,175.8-380.2,311.4-574.9,460.5
			c324-84.7,558.3-296.8,826.6-460.4c-348.2,431.8-844.5,653.3-1323.6,899.2c607.2-92.1,1114.3-494.9,1531.6-908
			c218.9-216.7,593.8-575.8,346.7-850.9C7769.7,22134.8,7689,22306.5,7594.7,22434.5L7594.7,22434.5z M7868.4,21625.6
			c21.7,214.1,182.2,420.1,95.7,671.9c-70.5,204.9-254.1,393-388.2,547.1c-296.2,340.6-583.6,594.7-992.2,787.4
			c-241.6,113.9-623.6,241.4-970.5,97.2c32.1-36.4,130-64.2,182.6-104.7c104.5-80.5,160.6-188.2,213.3-312.3
			c54-127.1,52.6-264,107.7-396.3c100-240.1,279.5-330.9,466.5-468.9c177.2-130.8,360.7-241.2,497.9-424.3
			c154.1-205.7,201.6-459.6,336.9-653c128.3-183.5,313.6-298.7,461-470.1C7886.5,21136.8,7842.5,21370.4,7868.4,21625.6"/>
		<path id="path594" class="st1" d="M5882.8,22940.9c-100.1,28.5-319.6-5.6-409.4-50.6c224.5,8,346.8-125,462.4-250.6
			c51.6,6.5,104.6-2.2,150.1,21.7C6061.1,22748.6,5973.8,22834.3,5882.8,22940.9"/>
		<path id="path598" class="st1" d="M6956.8,22061.1c-164.9,204.9-478.8,172-740.8,144.9c-228.5-23.6-545.7-70.8-747.2-160.7
			c169,69.7,373.9,132.7,531.2,217.1c267.9,144,62.1,412.5-83.5,588.1c136.2-27,302.4-185.2,418.8-259.1
			c155.1-98.5,443.2-284.1,489.2-437.4c-27.8-3.2-48,7.4-60.6,31.9"/>
		<path id="path600" class="st1" d="M5859.9,23162c-137.2,50.9-316-64.1-411.5-128.6c145.9,93.3,194.7,287.2,389.9,340.3
			c74-94.2,153-263.3,130.3-371.6"/>
		<path id="path682" class="st0" d="M5223.4,23060.5c78.7,67.5,152,130.9,196.8,218.2c3.7,7.3,19.4,1.9,16.1-5.5
			c-38.9-87-102.7-175.2-202.1-223.9C5225.6,23045.2,5216.7,23054.8,5223.4,23060.5"/>
		<path id="path692" d="M3672,24551.8c46.7-95.6,93.9-234.5,34.2-302.1C3650.5,24342.6,3683.1,24455.6,3672,24551.8"/>
		<path id="path700" d="M6046.9,22254.2c-94.8-12.7-187.5-77.1-285.7-88.1C5780.2,22231.4,5963.6,22297.7,6046.9,22254.2"/>
		<path id="path714" d="M7412.5,22605.9c139.4-149.4,274.4-410.2,247.5-614.6c-129.3,235.4-252.3,515.2-435.9,651.3
			c150.4-178.3,283.1-499.4,295.9-737.7c-62.9,134-141.4,273.2-220.6,401.2c-75.5,122.1-156.1,259.4-276.5,308.7
			c158.7-175.3,354.2-431.9,363.9-714c-72.1,186.1-179.2,330-294.3,462c-102.4,117.5-211.9,232.8-340.5,290.6
			c109.6-102.3,229-226.1,296.4-366.4c-254.3,266-690.7,341.3-803.1,765.1c136.8-94.7,259.9-208.7,409.1-285.8
			c-114.8,114.8-260.6,220.9-361.2,333.8c184.1-102.3,379.7-223.9,558.5-311.6c-112.3,133.8-281,222.9-391.6,337
			c194.9-87.1,361.8-213.8,551.5-308.4c-175.9,175.8-380.2,311.4-574.9,460.5c324-84.7,558.3-296.8,826.6-460.4
			c-348.2,431.8-844.5,653.3-1323.6,899.2c607.2-92.1,1114.3-494.9,1531.6-908c218.9-216.7,593.8-575.8,346.7-850.9
			c-48.3,177.1-129,348.8-223.3,476.8C7541,22507.4,7485.2,22584.5,7412.5,22605.9"/>
		<path id="path754" class="st1" d="M21306.2,27647.8c-338.6,210.4-144.5,668-34.1,942.1c210.4,522.8,507.1,1058.7,1022.9,1310.1
			c-335.7-371.6-697.1-723.4-836.9-1246.7c177.3,234.1,303.7,507.6,564.2,677.3c-116.1-200.3-246.5-389.6-334.6-611.6
			c134.1,144.4,234.1,315,376,453.2c-53.9-143.2-171.1-276.5-218.3-439.9c126.8,134.8,255.1,307.6,381,458.2
			c-45.3-139.4-134.6-283.8-192-428.7c104.3,116.3,169.6,262.7,255.4,393.2c72-453.5-295-643.1-417.4-976
			c3.7,158,61.6,313.1,119.5,444.4c-93.5-91.6-145.9-235.6-190.9-380c-50.6-162.3-89.1-334.2-78.1-539.4
			c-107.4,284.7-34.7,592.7,37.8,809.8c-89.4-81-106.5-239.4-125.1-381.3c-19.4-148.9-33.7-308.8-35.9-459.3
			c-86.5,241.8-97.6,597.8-33.9,815.6c-111.3-184.4-108.3-496.6-129.3-766c-108.7,197.5-92.9,493.6-27.4,679.7
			c-57.4-40.6-76.6-132.2-95.5-219.2C21280.3,28030.6,21277.3,27837.6,21306.2,27647.8L21306.2,27647.8z M21686.1,26573.3
			c63.9,210.1,185.4,374,226.9,591.2c43.7,229.1-17.4,495.4,38.4,741.7c49.6,219.2,171.6,377.7,279.4,555
			c113.7,187.2,239.9,325.1,232.3,591.4c-4.2,146.8-61.9,283.4-65,424.7c-3,138,3.8,260.5,66,368.4
			c31.2,54.4,109.1,107.7,123.4,152.5c-375.7,53.3-671.6-174.4-845-351.7c-293.3-300-450.7-629.6-580.7-1048.1
			c-58.8-189.4-148.8-425.7-128.7-649.2c24.8-274.6,256-438.6,364-647.1C21525.7,27053.8,21581.8,26808.5,21686.1,26573.3"/>
		<path id="path780" class="st1" d="M22666.3,29138.8c79.6,54.8,293.8,78.3,394.2,56.7c-208.1-50.7-264.9-215.9-318.6-372
			c-49.7-7-94.4-29.7-145.8-17.7C22582.8,28899.7,22627.1,29008.4,22666.3,29138.8"/>
		<path id="path786" class="st1" d="M22596.1,29366.1c104.1,87,314.5,18.9,428.3-20.8c-171.6,55.1-295.9,236.3-495.8,238.3
			c-28.7-113.7-31.1-303.5,34.2-405.9"/>
		<path id="path868" class="st0" d="M23218.4,29431.4c-99.6,46.9-192.5,91.2-269.4,166.8c-6.4,6.3-18.5-3.1-12.4-9.8
			c71.3-76.8,165.8-148.3,276.6-171C23222.6,29415.5,23226.8,29427.4,23218.4,29431.4"/>
		<path id="path886" d="M22799.4,28408.8c91.7,12,202.7-27.9,296.8-13.3C23052,28455.9,22857.3,28474.3,22799.4,28408.8"/>
		<path id="path900" d="M21409.1,28402.6c-65.5-186.1-81.3-482.3,27.4-679.7c21,269.4,18,581.5,129.3,766
			c-63.7-217.8-52.6-573.8,33.9-815.6c2.2,150.5,16.5,310.4,35.9,459.3c18.6,141.9,35.7,300.4,125.1,381.3
			c-72.5-217.1-145.2-525-37.8-809.8c-11,205.1,27.5,377.1,78.1,539.4c45,144.4,97.4,288.5,190.9,380
			c-57.9-131.2-115.8-286.3-119.5-444.4c122.4,332.9,489.4,522.6,417.4,976c-85.8-130.5-151.1-276.9-255.4-393.2
			c57.4,144.9,146.7,289.3,192,428.7c-125.9-150.6-254.2-323.5-381-458.2c47.2,163.3,164.4,296.7,218.3,439.9
			c-141.9-138.2-241.9-308.8-376-453.2c88.1,222.1,218.5,411.3,334.6,611.6c-260.5-169.7-386.9-443.2-564.2-677.3
			c139.8,523.3,501.2,875,836.9,1246.7c-515.8-251.4-812.5-787.4-1022.9-1310.1c-110.4-274.1-304.5-731.7,34.1-942.1
			c-28.9,189.8-25.9,382.8,7.4,535.7C21332.5,28270.4,21351.7,28362.1,21409.1,28402.6"/>
		<path id="path936" class="st2" d="M19100.4,22820.7c0,0.6-0.5,1,0.1,1.9c-90,230.8-134.7,507.6-10.8,816
			c202.6,504.4,446.6,1102.5,737.7,1440.2c-219.3-175.3-456.4-363.2-670-583.5c-224.6-231.5-507.1-535.3-564.8-871.9
			c73.1,147.7,163,306.7,268.2,386.6c-80.7-155.3-139.9-345.2-127.4-487.4c67.7,162,129.9,331.6,246.2,424.5
			C18716.5,23511.8,18837.2,23049.3,19100.4,22820.7"/>
		<path id="path938" class="st1" d="M15879.9,21957.7c-247.1,275.1,127.9,634.2,346.7,850.9c417.3,413.1,924.4,815.9,1531.7,908
			c-479.2-245.9-975.4-467.3-1323.7-899.2c268.4,163.7,502.6,375.8,826.6,460.4c-194.7-149.2-399-284.8-574.9-460.5
			c189.7,94.6,356.6,221.4,551.6,308.4c-110.7-114.1-279.4-203.2-391.6-337c178.8,87.8,374.3,209.3,558.5,311.6
			c-100.6-112.9-246.4-219-361.3-333.8c149.2,77.1,272.3,191.2,409.1,285.8c-112.3-423.8-548.8-499.1-803.1-765.1
			c67.4,140.3,186.8,264,296.5,366.4c-128.6-57.8-238.1-173-340.5-290.6c-115.1-132-222.3-275.9-294.3-462
			c9.6,282.1,205.1,538.7,363.8,714c-120.3-49.3-201-186.6-276.5-308.7c-79.2-128.1-157.6-267.3-220.6-401.2
			c12.8,238.3,145.5,559.4,295.9,737.7c-183.6-136.3-306.5-416-435.9-651.3c-26.9,204.4,108.2,465,247.5,614.6
			c-72.7-21.5-128.5-98.5-182.1-171.4C16008.9,22306.5,15928.2,22134.8,15879.9,21957.7L15879.9,21957.7z M15818.8,20899.7
			c147.4,171.4,332.7,286.5,461,470.1c135.3,193.5,182.9,447.3,336.9,653c137.2,183.1,320.8,293.5,497.9,424.3
			c187.1,138,366.5,228.8,466.6,468.9c55.1,132.3,53.6,269.2,107.6,396.3c52.8,124.1,108.8,231.8,213.4,312.3
			c52.5,40.5,150.4,68.3,182.5,104.7c-346.8,144.1-728.9,16.7-970.4-97.2c-408.6-192.8-696-446.9-992.3-787.4
			c-134.1-154.1-317.7-342.2-388.1-547.1c-86.6-251.8,73.9-457.8,95.7-671.9C15855.4,21370.4,15811.5,21136.8,15818.8,20899.7"/>
		<path id="path964" class="st1" d="M17815.1,22940.9c100.2,28.5,319.7-5.6,409.4-50.6c-224.5,8-346.8-125-462.4-250.6
			c-51.6,6.5-104.6-2.2-150.1,21.7C17636.8,22748.6,17724.1,22834.3,17815.1,22940.9"/>
		<path id="path968" class="st1" d="M16741.1,22061.1c164.9,204.9,478.9,172,740.8,144.9c228.6-23.6,545.7-70.8,747.2-160.7
			c-169,69.7-373.9,132.7-531.2,217.1c-267.8,144-62.1,412.5,83.5,588.1c-136.1-27-302.3-185.2-418.7-259.1
			c-155.2-98.5-443.3-284.1-489.3-437.4c27.8-3.2,48,7.4,60.6,31.9"/>
		<path id="path970" class="st1" d="M17838.1,23162c137.1,50.9,315.9-64.1,411.5-128.6c-146,93.3-194.8,287.2-389.9,340.3
			c-74-94.2-153-263.3-130.3-371.6"/>
		<path id="path1052" class="st0" d="M18474.6,23060.5c-78.8,67.5-152,130.9-196.9,218.2c-3.7,7.3-19.4,1.9-16-5.5
			c38.8-87,102.7-175.2,202.1-223.9C18472.3,23045.2,18481.2,23054.8,18474.6,23060.5"/>
		<path id="path1062" d="M20025.9,24551.8c-46.7-95.6-93.8-234.5-34.1-302.1C20047.5,24342.6,20014.8,24455.6,20025.9,24551.8"/>
		<path id="path1070" d="M17651.1,22254.2c94.8-12.7,187.4-77.1,285.7-88.1C17917.8,22231.4,17734.3,22297.7,17651.1,22254.2"/>
		<path id="path1084" d="M16285.4,22605.9c-139.3-149.4-274.4-410.2-247.5-614.6c129.4,235.4,252.3,515.2,435.9,651.3
			c-150.4-178.3-283.1-499.4-295.9-737.7c63,134,141.4,273.2,220.6,401.2c75.5,122.1,156.2,259.4,276.5,308.7
			c-158.7-175.3-354.2-431.9-363.8-714c72,186.1,179.2,330,294.3,462c102.4,117.5,211.9,232.8,340.5,290.6
			c-109.7-102.3-229.1-226.1-296.5-366.4c254.3,266,690.8,341.3,803.1,765.1c-136.8-94.7-259.9-208.7-409.1-285.8
			c114.9,114.8,260.7,220.9,361.3,333.8c-184.2-102.3-379.7-223.9-558.5-311.6c112.2,133.8,280.9,222.9,391.6,337
			c-195-87.1-361.9-213.8-551.6-308.4c175.9,175.8,380.2,311.4,574.9,460.5c-324-84.7-558.2-296.8-826.6-460.4
			c348.3,431.8,844.5,653.3,1323.7,899.2c-607.3-92.1-1114.4-494.9-1531.7-908c-218.8-216.7-593.8-575.8-346.7-850.9
			c48.3,177.1,129,348.8,223.4,476.8C16156.9,22507.4,16212.7,22584.5,16285.4,22605.9"/>
		<path id="path1088" class="st3" d="M4621.5,29466.9c-6.8-0.4-13.2-1.3-11.2-8.7c449.9-316.9,1034.4-563.7,1682.5-749.7
			c637.6-183,1519.7-200.5,2277-279c-318.5,132.3-705.4,133.6-1065.6,191.8C6426.1,28795.5,5398.6,29054.4,4621.5,29466.9"/>
		<path id="path1090" class="st3" d="M15154.1,28420.8c776.2,92.2,1627.6,108.3,2265.8,287.8c653.2,183.7,1225.6,424.5,1682.5,741
			c2.4,11,17.4,17.8-11.3,17.4c-788.4-426.2-1794.3-669.3-2882.7-845.6C15856.5,28564.3,15467.3,28566.7,15154.1,28420.8"/>
		<path id="path1092" class="st3" d="M12955.5,22954.8c-265.1-141.2-511.6-360-897.3-392.3c-633.3-53-960.8,204-1301.1,383.6
			c218.2-198.1,536.2-513.6,908.6-575.3C12306.7,22264.1,12697.6,22704.1,12955.5,22954.8"/>
		<path id="path1094" class="st0" d="M20829.7,26485.4c-727.9-615.4-1719.3-1100.1-3062.1-1159.3c-515.7-22.8-946.1,30.7-1301.2,122
			c-344.9,88.7-655.3,243.7-1054.4,305.2c-284.5,43.8-527.3-61.2-717.8-148.2c59.6,84.8,165.4,142,0,61
			c474,323.5,716.2,716,1648.8,680c727.7-28.1,1428.9-144.2,2164.8-17.4c666.1,114.8,1190.8,279.4,1693.8,523
			c967.9,468.9,1750.1,1025.4,2355.5,1839.4C22162,27794.8,21566.2,27108.2,20829.7,26485.4L20829.7,26485.4z M20055.8,25020.9
			c-621.7-393.5-1291.1-889.5-2288.2-941.4c-537.9-28-1020.9,73.8-1368.5,217.9c-170.6,70.8-323.4,171.7-504.8,244
			c-284.3,113.6-523.7,293.3-953.4,244.1c238.2,139.5,535.3,364.5,1031.9,331.3c306.9-20.5,567.5-127.4,863.8-174.4
			c1745.9-276.2,3032.5,320,3981.9,941.5c285.8,187.1,582.6,399.2,785.2,619C21265.8,25942.5,20719.8,25441.3,20055.8,25020.9z
			 M16096.3,22144c-131.3-48.3-326-92.3-415.1-148.1c-87.9-55.1-132.7-201.9-190.7-296.4c-125.9-205.7-259.8-380.1-392.5-584.1
			c-58.6-89.9-94.7-220.6-235.6-252.8c-124.8,245.9-199,531.1-302.9,793.3c-503.6-103.8-1177.4-275.3-1805.9-226.6
			c-418.7,32.4-643.9,223.2-886,401c-254.2-170-472.8-368.1-897.4-401c-624.8-48.4-1296.7,119.4-1794.7,226.6
			c-124.9-248.7-182.7-549.5-314-793.3c-149.1,32.8-175.9,172-235.6,261.5c-129.8,194.5-251.3,362-381.4,575.3
			c-51.3,84.1-114.2,234.3-190.6,287.7c-86.5,60.4-286.5,96.5-426.3,148.2c-959,354.8-1868.3,818.6-2635.9,1299
			c996.5-457.6,2034.2-958.8,3286.5-1246.7c105.8-330.4,394-519,448.6-889.2c106.6,222.3,218.5,440.5,280.5,697.5
			c574.5-66.5,1218-360,1906.8-305.2c330.4,26.3,522.3,197.7,751.6,322.6c-23.3,25.5-79.2,25.7-123.4,34.9
			c-391.1-378.3-1445.4-127.8-1906.9,34.8c450.7-62.2,1179.9-249.3,1547.9,26.2c21.1,12.9,160.2,80.3-179.5,313.8
			c-219,184.2-331.9,451-560.8,627.6c-436.6,79.2-737.3,264-975.9,496.9c233.3-91.6,500.5-340,953.5-270.3
			c201,30.9,370.3,110.8,583.2,130.8c524.3,49.1,1171.7,51,1716.2,0c280.9-26.3,493-166.6,830.1-139.5
			c293.5,23.5,526.5,197.8,706.6,287.7c-224.7-243.7-538.3-418.5-964.6-505.7c-247.6-162.1-338.2-446.2-572.1-618.9
			c-234.3-162.9-214.7-183.3-168.2-322.6c327.2-262.3,1077-108,1536.6-17.5c-438.7-173.8-1515.3-423.6-1895.6-43.5
			c-55.2-0.7-90.2-17.1-134.6-26.2c214-132,419.8-303.4,740.4-331.3c694.2-60.3,1340.9,241,1918,305.2
			c55.9-258.8,182.6-462.5,269.2-697.5c74.8,357.4,347,561.5,459.9,889.2c1248.2,296.9,2277.2,764,3275.3,1255.3
			C17981,22944.3,17078.2,22505.7,16096.3,22144z M3668.1,25020.9c-667.8,422.7-1182.9,903.7-1559.1,1482.1
			c452.2-423.2,979-748,1570.3-1063.5c784.1-418.5,1912.7-699.1,3196.8-496.9c294.2,46.3,560.5,151.6,863.7,174.4
			c502.6,37.7,776.1-186.3,1043.1-322.6c-608.1,16.3-1019.3-314.9-1458.1-496.9c-353.2-146.5-848.6-245.1-1368.5-217.9
			C4957.1,24131.4,4290.4,24627,3668.1,25020.9z M3522.3,26851.6c710.9-344.5,1603-636.5,2781.7-592.7
			c457.8,16.9,898.1,118.2,1424.6,87.1c662.1-39,887.2-431,1301.1-680c-165.4,81-59.6,23.8,0-61
			c-528.5,343.6-1273.7-28.7-1772.2-157c-352.7-90.6-777.7-141.8-1290-122c-1346.7,52.1-2347.6,544.9-3073.3,1159.3
			c-736.7,623.8-1332.3,1308.8-1727.4,2205.6C1771.8,27877.8,2552.2,27321.7,3522.3,26851.6z M1783.7,39012.9
			c67.4-307.9,167.8-590.2,314-836.9c-133.5,669.3-106.2,1585.3-134.6,2336.3c120.1-485,81.9-1092.9,258-1534.3
			c-119,988.9,24.4,2107.4,112.2,3173.3c65.3,792.4,118.2,1560.3,572,2074.8c134.3,152.1,349.2,359.7,516,444.5
			c9.2,4.7,22.8,22.8,44.9,17.5c442.7-107.6,787.1-424.2,1088-680.1c942.1-800.9,1666.9-1731.5,2120-2902.9
			c106,8.7,89,100,78.5,165.6c-35.3,221.6-169.7,518.2-224.3,723.5c138.3-238.3,249-498.1,392.6-732.4
			c30.3,139.9-47.2,271.3-56.1,409.8c103.7-114.1,161.4-264,246.7-392.3c171.2,44.2,285.9,132.4,459.9,174.4
			c-964-685.2-1980.6-1323.7-2938.8-2013.9c-477.2-343.6-922.8-712.5-1402.1-1054.8c-479-342.2-995.3-656.4-1402-1054.8
			c-80.4-164.2-190.7-305.2-280.5-462c83.9,260.3,192.7,501.2,302.9,741c-116.4-66.5-253.9-238.6-370.2-305.2
			c105.7,191,236.3,362.7,381.4,523C1830.8,38203,1828.1,38608.8,1783.7,39012.9L1783.7,39012.9z M10286,35804.8
			c682.5-523.5,923.7-1602.6,1144.1-2493.3c-250.1,595.8-698.3,1099.6-1177.8,1525.6c-447,397.3-1121.3,647.3-2041.4,662.6
			c150.8,320.2,390.4,596.3,874.9,636.4C9594,36178.1,10028.5,36002.2,10286,35804.8L10286,35804.8z M10521.5,37609.3
			c54.5,508.5,268.1,883.9,527.2,1264.1c260.4,382.1,485.2,738.3,807.6,1072.3c7.5,0,14.9,0,22.5,0
			c514.9-720.3,1210.4-1328.1,1323.5-2327.7c62.4-550.1-248.7-970.2-381.4-1455.8c-296-1083.9-655.3-2265.2-953.3-3339
			c-316,1065.1-664.7,2240.9-964.7,3339C10769.4,36650.9,10461.6,37049.6,10521.5,37609.3L10521.5,37609.3z M14335.2,36136
			c706,48.3,998.5-255.9,1177.8-636.4c-915.4-13.9-1581.4-262.9-2030.2-653.9c-488-424.9-934.4-936.2-1189-1534.3
			c221.7,877,453.6,1978.1,1155.3,2502C13659.3,35970.4,14005.6,36113.5,14335.2,36136L14335.2,36136z M11194.5,31942.8
			c65.1,164.8,70.3,340.7-56,514.4c-253.4,348-824.3,438.5-1222.7,706.1c-406.6,273.2-387.3,835.6-673,1142
			c-196.9,211.2-538,347.6-852.4,435.9c1256.2-34.3,2062.7-590.4,2579.8-1272.7C11276.9,33063.6,11652.2,32399.7,11194.5,31942.8
			L11194.5,31942.8z M12540.5,31942.8c-471.3,451.3-106.2,1104.1,213.1,1525.6c199.1,262.7,427.9,503.8,729.2,706.1
			c514,345.2,1072.3,548.5,1850.7,575.3c-295.4-102.8-654.8-227-852.4-436c-224.2-236.9-227.5-671.1-460-967.6
			c-332.1-423.6-1160.9-475.8-1446.9-898C12462.1,32283,12453.5,32118.3,12540.5,31942.8L12540.5,31942.8z M8839,27627.5
			c-501.4,67.9-996.8,19.9-1458.1-8.7c-1535.3-95.2-2657.3,196.9-3510.9,767.2c-1067.6,713.2-1780.8,1761.3-1862,3295.3
			c5.9,7,11.7,14.1,11.3,26.1c463.1-643.2,1857.8-686.4,2905.1-897.9c756.1-152.6,1557.7-364.1,2232.1-653.9
			c681.3-292.7,1182.8-654.6,1660.1-1107.1c204.7-194.1,469.1-435.4,650.5-688.7c193.1-269.6,618-844.8,201.9-1081
			C9385.4,27398.3,9197.2,27579,8839,27627.5L8839,27627.5z M8940,23547.5c51.1,635.5,119.8,1255.5,235.5,1883.1
			c108.8,589.7,362.2,1183.8,314.1,1813.3c196.3-579.4,163.2-1390.5,22.4-1979C9366.4,24656,9038.3,24162.5,8940,23547.5z
			 M14211.8,25265c-141.3,591.1-165,1383.3,11.2,1979c91.8-1235.4,515.8-2404.9,572.1-3696.4
			C14680.6,24149.8,14357.3,24656.9,14211.8,25265L14211.8,25265z M19865.1,28394.6c-850.6-574.4-1959.4-872.7-3522.1-775.8
			c-466.7,28.9-1061.1,85.4-1536.7-8.7c-307.2-60.8-489.7-210.8-740.3-331.3c-87.2,90.9-177.9,97-201.9,191.8
			c-74.1,293.1,278,721.1,403.9,898c189.3,266.4,447.3,514.1,650.5,706.1c464.6,439.1,991.2,813.6,1693.7,1107.1
			c1063,444.1,2251,649,3555.7,871.8c533.2,91.1,1128.4,193.4,1390.9,470.9c55.5,58.5,64.2,149.6,134.6,183
			c9.6,1.6,10.6-3.4,11.3-8.7C21663.6,30168.8,20914.7,29103.5,19865.1,28394.6L19865.1,28394.6z M16601,41279.5
			c98.4,118.3,155.6,268.5,246.8,392.3c13.1-126.5-66.2-256.6-56.1-409.8c163.1,222,259.1,496.1,403.8,732.4
			c-52.4-205.1-188.2-492.9-224.3-714.9c-10.2-62.2-27.2-160,67.2-174.4c344.6,724.7,671.4,1438.2,1245.1,2048.7
			c531.5,565.5,1103.8,1215.2,1929.3,1516.9c152.2,55.7,459.4-307.5,572.1-427.1c460.9-489.7,560.1-1260.7,605.7-2066.1
			c60.7-1074.5,258.9-2159.1,100.9-3199.4c198.8,426.7,143.1,1051.1,269.2,1534.3c-36.8-753.1,15.8-1651.1-145.8-2336.3
			c157.9,237.6,264,515.5,314,836.9c-16.1-384.4-44-808.4-67.3-1176.8c137.2-166.6,270.1-336.4,381.4-523.1
			c-107.7,44.4-244.9,216.3-370.1,305.1c104-247.5,220.3-485.4,302.8-749.7c-90.9,153.1-192.7,297.7-280.4,453.4
			c-398.4,407.7-921.3,720-1402.1,1063.5c-479.2,342.4-924.8,711.3-1402.1,1054.8c-958.4,690.1-1974.7,1328.8-2938.7,2013.9
			C16321.7,41411.1,16441,41329.5,16601,41279.5L16601,41279.5z M22893.6,36414.9c39.2,762,95.1,1528.8,89.7,2292.8
			c-10.7,1541.7-208.1,2943.4-639.4,4228.1c-321.4,957.7-807.9,1715.5-1357.1,2484.6c-176.7,247.4-388.7,528.8-673.1,662.5
			c-111.7,52.6-263.1,102.7-437.4,61c-238.5-56.9-560.9-261.5-751.6-409.7c-1101.6-856.1-1780.1-1916.6-2591-2964
			c-234-302.3-436.5-632.8-661.8-976.4c-55.4-84.6-177.9-285.3-269.2-296.4c-72.8-8.8-288.3,54-415,78.5
			c-993.8,191.8-2160.7,270.3-3331.4,270.3c-1408.2,0-2600.3-132.1-3746.4-348.7c-11.2,0-13.3,7.1-22.4,8.8
			c-895.3,1199.8-1758.2,2588.2-2882.7,3678.8c-335.8,325.8-795.8,789.3-1323.6,950.2c-515,157-840-338.6-1031.9-566.7
			c-207.9-247-388.3-510.5-549.6-749.7C908.9,42756.9,629.4,39770.3,819,36650.4c45.9-753.8-88.1-1498.9-157-2223
			c-69.2-728.1-124.5-1501.3-100.9-2266.6c23.9-776.6,11.8-1548.6,112.1-2275.4c377.9-2736.5,1709.5-4923.1,3679.1-6581.9
			c963.8-811.7,2077-1509.2,3320.2-2144.7c886.2-452.9,1806.8-972.6,2826.6-1342.5c382.8-138.9,682.5-226.7,1211.4-226.7
			c258.6,0,534.5-26.8,729.1,0c206.8,28.5,370,94.4,560.9,157c1039.8,341.1,1997.9,852.4,2860.2,1316.5
			c618.4,332.7,1212.7,640.1,1761.1,993.8c558.7,360.4,1073.4,721,1592.7,1124.5c996.5,774.5,1832.7,1762.3,2456.5,2815.8
			c648.6,1095.4,1113,2275.9,1346,3678.9c236.9,1426.3,155.5,3016.8,67.3,4524.5C23042.5,34914.6,22854.5,35656,22893.6,36414.9"/>
		<path class="st4" d="M12246.3,19506c-148.5-141.6-422.8-144.1-655.7-119.6c-1105.4,116.4-2105.6,559.5-3041.7,1031.1
			c-3334.7,1679.7-6387.5,3990.2-7461,6963.8c-373.4,1034.4-494.1,2112.7-581.7,3184.6c-223.5,2737.5-195.6,5633.2,1541,8021.2
			c726.2,998.5,1806.3,1907.7,3219.9,2237.4l-445.3-1137c1349.2,926.3,3036,1552.1,4811,1785.1
			C8247,40667.5,6855,39740.8,6282.4,38471.9c-488.3-1081.9-309.1-2291.7,199.7-3368c508.9-1076.2,1320.5-3077.3,2419.3-4090
			c697.2-642.7,1408.8-1295.1,2304.3-1763.1c-335.5,128.9-800.5,43.6-1001.7-207.5c-238.4-297.7-97.7-680.3-12.6-1024.7
			c285.6-1155.4-154.1-2336.5-589.4-3463.4c77,785.8,74.8,1715.4-739.9,2184.5c-601.8,346.5-1420.9,299.2-2168.3,336.5
			c-1354.8,67.4-2764.9,530.6-3431.9,1449.6c-84,115.7-160,241.4-297,320.6c-137.1,79.3-360.2,88.8-458.9-19.6
			c-70.3-77.2-53.7-182.1-28.5-274.6c343.8-1265,1816.1-2293,3471-2423.8c-1042.8-119-2132.4,23.3-3068,400.6
			c95.2-637.5,647.6-1194.4,1335.4-1549.4c687.7-355.3,1501.1-532.7,2311.4-656.3c-484.7,26-969.4,51.9-1454.1,77.9
			c-185,10-403.4,8.4-513.2-107.7c-142.3-150.6,12-358.7,170.6-499.2c933.5-826.3,2180.3-1436.2,3542.6-1733
			c107.7-401.9,304.2-789.3,578.2-1140.4c49.2,304.4,127.2,605.8,233.3,901.4c427.3-162.7,873.9-329,1349.7-327.8
			s986.9,225.3,1077.2,588.3c410.5-25.5,596.5-406.4,667.3-721.6c109.6-488.3,169.2-983.2,178-1478.6
			C12359.4,19750.9,12353.2,19607.9,12246.3,19506z"/>
		<path class="st4" d="M11339.4,29182.8c-44.9,22.1-89.5,44.7-133.5,67.7C11253.4,29232.4,11298.2,29209.9,11339.4,29182.8z"/>
		<path id="path1112" class="st4" d="M18898.3,39687.4c-1349.3,926.2-3036,1552.1-4811.1,1785.1
			c1385.9-805,2777.8-1731.8,3350.5-3000.8c488.3-1081.9,309.2-2291.7-199.8-3368c-508.9-1076.2-1320.5-3077.3-2419.2-4090
			c-731.6-674.3-1479-1359.5-2438.2-1830.8c332.4,217.6,905.9,147,1135.5-139.7c238.4-297.7,97.7-680.3,12.6-1024.7
			c-285.5-1155.4,154.1-2336.5,589.4-3463.4c-77,785.8-74.8,1715.4,739.9,2184.5c601.8,346.5,1420.9,299.3,2168.4,336.5
			c1354.8,67.4,2764.8,530.6,3431.9,1449.6c84,115.7,159.9,241.4,297,320.6c137,79.3,360.1,88.8,458.8-19.6
			c70.4-77.2,53.7-182.1,28.5-274.6c-343.8-1264.9-1816-2293-3471-2423.8c1042.9-119,2132.5,23.3,3068,400.6
			c-95.3-637.5-647.6-1194.4-1335.3-1549.5c-687.8-355.2-1501.2-532.7-2311.5-656.2c484.7,26,969.4,51.9,1454.2,77.9
			c184.9,9.9,403.4,8.4,513.1-107.7c142.2-150.6-12.1-358.7-170.7-499.2c-933.4-826.3-2180.2-1436.2-3542.6-1732.9
			c-107.6-401.9-304.1-789.4-578.2-1140.4c-49.3,304.4-127.3,605.8-233.3,901.4c-427.2-162.7-873.9-329-1349.7-327.8
			c-475.7,1.2-986.8,225.3-1077.1,588.3c-410.6-25.5-596.6-406.4-667.3-721.6c-109.6-488.3-169.2-983.2-178.2-1478.6
			c-2.3-131.6,3.9-274.5,110.8-376.5c148.4-141.6,422.7-144.1,655.6-119.6c1105.4,116.5,2105.7,559.6,3041.7,1031.1
			c3334.6,1679.7,6387.5,3990.2,7461,6963.8c373.4,1034.3,494.2,2112.5,581.7,3184.5c223.5,2737.4,195.6,5633.2-1540.9,8021.1
			c-726.2,998.6-1806.4,1907.7-3220,2237.4"/>
		<path id="path1132" class="st5" d="M2602.1,38411.7c209.7,113.3,364.7,278.1,492.7,449.9c415,557,581.5,1223.4,464.9,1860.6
			c110.9-333.4,187.9-673.6,230-1016.4c138,920.8,228.8,1877.8-160.8,2753.9c257.9-364.9,457.1-754.8,591.5-1157.8
			c-109,897.1-248.2,1843.6-943.1,2564.9c128.4,7.8,236.3-70.4,322.1-145c500.7-435.8,873.2-949.5,1241.6-1458.8
			c172.8-238.8,346.7-479.6,455.2-740.3c72.1-173.1,114.6-355.6,99-537.3c-23.4-273.8-176.6-530.8-355.4-767.5
			c-304.2-402.5-690.6-767.4-1140.3-1076.7c-392.5-270-839.7-503.9-1131.4-842.3"/>
		<path id="path1134" class="st6" d="M6001.2,25692.2c962.8-2.2,1714.6,397.1,2624.7,165.6c-175.8,132.7-463.4,323.9-830,348.7
			c-343.4,23.2-673.3-51.6-987.1-78.5c-2597.6-222.5-3989.6,915.5-5137.3,1891.7c461.9-575.9,1004.2-1090.4,1716.2-1508.2
			C4085.7,26102.2,4830.3,25694.7,6001.2,25692.2"/>
		<path id="path1136" class="st6" d="M8502.5,24881.4c-207.1,59.3-395.3,145.4-695.4,113.3c-149.1-15.9-252.3-79.5-370.2-113.3
			c-955.3-274.2-2180.3-209.6-2994.8,95.9c-811.2,304.3-1446,772.4-2041.5,1194.3c432.5-392,897.4-768.2,1480.6-1098.5
			c498.5-282.2,1247-639.8,2019-679.9C7043.5,24333.6,7521.6,24867.7,8502.5,24881.4"/>
		<path id="path1138" class="st6" d="M20100.6,29894.1c-264.6-437.3-701.2-776.6-1189-1063.5
			c-643.8-378.8-1364.6-686.4-2377.9-810.8c768.1,190.9,1540.6,460,2063.9,871.8c-853.6-438-1963.1-677.1-3252.9-775.9
			c249.2-96.9,631.8-90.1,953.5-130.7c-410-86.9-1007.6-37.6-1447-34.9c-315.4,1.9-445.7-160.7-628.2-261.5
			c260,232,435.2,592.5,639.4,845.6c463.3,574.3,1184.7,956.4,2086.3,1220.5c1150.4,336.9,2822.5,298.3,3791.3,845.6
			C20530.3,30387.5,20262.9,30162.3,20100.6,29894.1L20100.6,29894.1z M21637.3,31472.1c-78.9-91.2-193.9-161.5-314-218
			c-610.4-286.6-1534.5-347.7-2277.1-505.6c-763.5-162.4-1537.2-360.8-2187.2-584.1c-1062.1-364.9-1676.5-924-2299.5-1630.3
			c-264.6-300-505.4-672.5-437.4-1159.4c365.2,227.9,944.5,360.4,1536.7,374.8c479.4,11.8,949.2-67.3,1480.6-61
			c1000.9,11.9,1736.7,245.5,2366.7,584.1c1231.7,661.9,1875.2,1749.6,2142.4,3190.7
			C21647.9,31468.6,21646.9,31473.6,21637.3,31472.1"/>
		<path id="path1140" class="st6" d="M8379.1,35551.9c1630.3,160.8,2212-639.1,2725.7-1403.5c-231.4,503-514.7,1282.2-1065.6,1639
			c-200.9,130.1-564.4,256.8-897.3,235.3C8753.5,35997.7,8464.6,35773.5,8379.1,35551.9"/>
		<path id="path1142" class="st6" d="M9500.8,27697.2c-181.3,76.2-289.4,250.8-616.9,252.8c-436.3,2.7-1035.5-49.4-1458.2,26.1
			c303,55.1,690.3,44.7,953.4,130.8c-1264.2,118.8-2403.6,334.5-3241.6,784.6c495.5-405.4,1260.5-676.7,2063.9-871.8
			c-1025.2,122.8-1743.2,430.8-2389.2,810.8c-488.3,287.2-916.9,621.2-1189,1072.3c-157.5,261.2-414.9,471.7-650.5,697.4
			c977.1-536.4,2638.7-516.5,3791.2-845.6c906.2-258.9,1628.7-639.3,2097.6-1220.5C9064.2,28282.9,9226.7,27932.4,9500.8,27697.2
			L9500.8,27697.2z M7021.9,30112.1c-667.5,241.7-1472.2,450.7-2265.8,618.9c-883.7,187.3-2179.6,305.2-2680.8,723.5
			c144.4-749.8,341.6-1345.2,717.9-1874.3c713.6-1003.4,1857.2-1875.9,3802.5-1891.7c528.9-4.3,996.9,74,1480.6,61
			c607.3-16.3,1180-165.3,1525.5-366.1c62.2,739.4-461.7,1218.7-897.4,1647.7C8259.6,29469,7728.2,29856.3,7021.9,30112.1"/>
		<path id="path1144" class="st6" d="M19192.1,39788.7c590.3-398.4,1160.7-812.4,1704.9-1246.7
			c332.9,552.5,549.8,1313.7,504.8,2144.7c-74.2,1367.6-87.7,2907.2-1065.6,3513.2c-657-307.6-1163.7-812.5-1660.1-1325.1
			c-488-503.8-943.2-1066.1-1188.9-1699.9c-38.9-100.1-54.3-206.5,67.2-235.4c465.3,824.7,1062.4,1577.4,1772.2,2205.6
			c237,209.6,500.2,424.1,818.9,566.7c-737.7-531-1208-1269.6-1660.1-2022.5c357.6,285.8,731.8,756.3,1110.5,1054.8
			c-584.9-521.8-710.9-1400.3-1144.1-2039.9c191.4,153.5,444.8,380.7,594.4,566.7c-118.7-262.2-219.7-584.7-235.5-898
			c141.8,148.5,219.8,346.4,347.7,505.6C18903.1,40577.3,19005.6,40089.7,19192.1,39788.7"/>
		<path id="path1146" class="st6" d="M16926.3,26128.1c-312.9,26.9-654.1,101.8-998.3,78.5c-366.6-24.8-654.2-216-830-348.7
			c910,231.5,1661.9-167.9,2624.7-165.6c1170,2.7,1912.9,408.4,2613.5,819.4c709.9,416.5,1276.4,937.2,1704.9,1516.9
			C20901.3,27020.5,19495.3,25907.2,16926.3,26128.1"/>
		<path id="path1148" class="st6" d="M11306.7,35377.5c237.4-711.7,296.6-1431.9,560.9-2100.9c286.8,1013.8,527.9,2137,886,3103.5
			c122,329.1,274.4,696.8,269.2,1063.5c-12.8,924.1-797.1,1451.4-1155.2,2153.3c-0.7,5.3-1.8,10.3-11.3,8.7
			c-187.1-354.1-484.8-659.7-706.6-1002.6c-211.4-326.6-445.6-718.2-448.7-1168.2c-2.5-356.2,145.2-720.3,269.2-1054.8
			C11092.9,36049,11195.9,35709.6,11306.7,35377.5"/>
		<path id="path1150" class="st6" d="M4531.8,39788.7c181.4,272.6,253.9,714.5,96.5,1008.3c-16.9,28.1-34,55.8-51.6,81.5
			c19.7-25.4,36.3-52.9,51.6-81.5c90.3-150,174.9-323.6,296.1-415.5c-43.7,329.3-128.1,626.9-246.8,897.9
			c157-209.3,412.5-434.8,594.5-566.7c-437.2,636.6-565.9,1513-1144.1,2039.9c397.7-330.2,726.3-760.7,1121.7-1063.5
			c-460.6,740.4-952,1503.4-1660.1,2022.5c1162.7-688.7,1934.7-1681.3,2579.8-2772.3c126.6,30.9,101.9,146.4,67.3,235.4
			c-245.8,633.8-700.7,1195.9-1188.9,1699.9c-497.4,513.6-1004.2,1024.6-1671.3,1325.1c-967.3-618-977-2153.2-1054.4-3522
			c-47.7-842.9,178.2-1583,504.8-2135.8C3370.7,38976.6,3941.7,39390.1,4531.8,39788.7"/>
		<path id="path1152" class="st6" d="M16275.7,24881.4c-108.9,31.3-207.9,96.9-347.7,113.3c-302.2,35.5-514-51.2-706.7-122
			c581.5,65,914.4-189.1,1323.6-313.8c366.3-111.7,800.9-193.3,1290-165.6c399.3,22.5,767.9,153.2,1099.2,270.3
			c1001.9,353.9,1773,924.9,2377.9,1516.9c-594.8-454-1223.7-900.5-2041.4-1203.1C18454.3,24675.3,17236.1,24605.2,16275.7,24881.4"
			/>
		<path id="path1154" class="st6" d="M15355.9,35551.9c-122,231.2-381.2,449.8-785.1,470.8c-331.6,17.2-684.7-104.9-886.1-235.3
			c-553.1-358.2-800.3-1098.8-1076.9-1630.3C13117.4,34871.6,13725.5,35736,15355.9,35551.9"/>
		<path id="path1156" class="st6" d="M13852.9,33590.4c325.9,309.7,327,822.3,863.7,993.8c-1198-274.9-1849.1-1021.3-2243.4-1891.7
			C12715.2,33172.3,13465.8,33222.5,13852.9,33590.4"/>
		<path id="path1158" class="st6" d="M9007.3,34575.5c544.1-162.7,539.6-677.1,863.7-985.1c388.5-369.2,1137.3-423.8,1390.8-897.9
			C10839,33569.8,10197.4,34323.6,9007.3,34575.5"/>
		<path id="path1192" class="st0" d="M555.5,38468.3c0,0,687.1-1538.3,925.3-548.8c238.2,989.5-500,3076.7,398.7,4939.3
			c898.7,1862.6,967.7,2909.2,85.6,1627.8c-882-1281.5-1509.8-2903-1409.6-3507.1C655.7,40375.5,555.5,38468.3,555.5,38468.3"/>
		<path id="path1194" class="st0" d="M23123.1,38468.3c0,0-687.1-1538.3-925.3-548.8c-238.2,989.5,500.1,3076.7-398.6,4939.3
			c-898.8,1862.6-967.7,2909.2-85.6,1627.8c882-1281.5,1509.7-2903,1409.5-3507.1C23023,40375.5,23123.1,38468.3,23123.1,38468.3"/>
		<path id="path1196" d="M23017,29676.1c-233-1403-697.4-2583.5-1346-3678.9c-623.8-1053.5-1460-2041.3-2456.5-2815.8
			c-519.3-403.6-1034-764.1-1592.7-1124.5c-548.4-353.7-1142.7-661.1-1761.1-993.8c-862.3-464-1820.4-975.3-2860.2-1316.5
			c-190.9-62.6-354.1-128.4-560.9-157c-194.6-26.8-470.5,0-729.1,0c-528.9,0-828.6,87.8-1211.4,226.7
			c-1019.8,369.9-1940.4,889.5-2826.6,1342.5c-1243.2,635.4-2356.4,1333-3320.2,2144.7c-1969.6,1658.8-3301.2,3845.3-3679.1,6581.9
			c-100.3,726.7-88.2,1498.8-112.1,2275.4c-23.6,765.3,31.7,1538.5,100.9,2266.6c68.9,724.2,202.9,1469.3,157,2223
			C629.4,39770.3,908.9,42757,2299.7,44819c161.3,239.2,341.7,502.7,549.6,749.7c191.9,228.1,516.9,723.6,1031.9,566.7
			c527.8-160.8,987.8-624.5,1323.6-950.2c1124.5-1090.7,1987.4-2479,2882.7-3678.8c9.1-1.7,11.2-8.8,22.4-8.8
			c1146.1,216.6,2338.2,348.7,3746.4,348.7c1170.7,0,2337.6-78.5,3331.4-270.3c126.7-24.5,342.2-87.3,415-78.5
			c91.3,11.1,213.8,211.8,269.2,296.4c225.3,343.6,427.8,674.1,661.8,976.4c810.9,1047.4,1489.4,2107.9,2591,2964
			c190.7,148.2,513.1,352.9,751.6,409.7c174.3,41.6,325.7-8.4,437.4-61c284.4-133.8,496.4-415.1,673.1-662.5
			c549.2-769.1,1035.7-1526.9,1357.1-2484.6c431.3-1284.7,628.7-2686.5,639.4-4228.1c5.4-763.9-50.5-1530.8-89.7-2292.8
			c-39.1-759,148.9-1500.3,190.7-2214.3C23172.5,32693,23253.9,31102.5,23017,29676.1L23017,29676.1z M23443.2,35796
			c-84.6,866.6,87.5,1739.8,56.1,2615.4c-32.3,902.2-56.5,1758.9-190.7,2589.2c-331.8,2052.3-1006.3,3756.3-2254.5,5082.4
			c-236.3,251.1-617.9,518.2-1121.7,479.4c-458.8-35.3-817.9-295.2-1054.4-549.2c-1247.7-1340.3-2344.4-2694.3-3533.3-4097.4
			c-911.5,321.3-2222,255.3-3477.1,252.8c-1254.9-2.5-2568,75.4-3477.2-252.8c-7.5,0-15,0-22.5,0
			c-692,821.8-1367.3,1654-2097.5,2519.5c-335.4,397.3-749,786.4-1110.5,1211.7c-162.1,190.9-322.6,432.8-560.8,601.6
			c-209.4,148.4-570.2,337.9-919.8,322.6c-905.5-39.7-1345.7-880.4-1727.3-1421c-852.4-1207.5-1287.7-2597.3-1548-4263.1
			c-193.3-1237.4-208.7-2594.2-134.6-3905.5c25-441.4,37.4-865.4,0-1299.1c-73.9-857-160.6-1708.9-213.1-2571.7
			c-109.3-1798.5,55.1-3612.7,504.8-5047.6c904.2-2885.4,2947.5-5005.4,5619.6-6573.2c670.5-393.5,1362.2-744.9,2075.1-1115.9
			c707.2-368.1,1439.8-724.8,2243.3-993.9c444-148.7,910.2-243.7,1447-226.6c527.2,16.9,964.4,109.1,1402.1,261.5
			c803.8,280.1,1508.3,640.4,2220.9,1011.3c1417.8,737.9,2818.4,1460.3,3937,2406c1140.2,964.1,2091.7,1995.1,2804.2,3286.7
			c701.5,1271.4,1214.4,2695.2,1323.6,4437.3C23745,32328,23609.1,34097.7,23443.2,35796"/>
		<path id="path1198" d="M4628.3,40797c-15.3,28.5-31.9,56.1-51.6,81.5C4594.3,40852.7,4611.4,40825.1,4628.3,40797"/>
		<path id="path1200" d="M2322.1,40677.9c77.4,1368.7,87.1,2904,1054.4,3522c667.1-300.6,1173.9-811.6,1671.3-1325.1
			c488.2-504,943.1-1066.2,1188.9-1699.9c34.6-89,59.3-204.5-67.3-235.4c-645.1,1091-1417.1,2083.6-2579.8,2772.3
			c708.1-519.1,1199.5-1282.1,1660.1-2022.5c-395.4,302.9-724,733.4-1121.7,1063.5c578.2-526.9,706.9-1403.3,1144.1-2039.9
			c-182,131.8-437.5,357.4-594.5,566.7c118.7-271.1,203.1-568.6,246.8-897.9c-121.2,91.8-205.8,265.4-296.1,415.5
			c157.4-293.7,84.9-735.6-96.5-1008.3c-590.1-398.6-1161.1-812.1-1704.9-1246.7C2500.3,39094.9,2274.4,39835,2322.1,40677.9
			L2322.1,40677.9z M1851,37609.3c-110.2-239.9-219-480.8-302.9-741c89.8,157,200.1,297.8,280.5,462
			c406.7,398.5,923,712.6,1402,1054.8c479.3,342.4,924.9,711.3,1402.1,1054.8c958.2,690.1,1974.8,1328.7,2938.8,2013.9
			c-174-42-288.7-130.1-459.9-174.4c-85.3,128.4-143,278.2-246.7,392.3c8.9-138.5,86.4-269.9,56.1-409.8
			c-143.6,234.3-254.3,494-392.6,732.4c54.6-205.4,189-502,224.3-723.5c10.5-65.6,27.5-157-78.5-165.6
			c-453.1,1171.5-1177.9,2102.1-2120,2902.9c-300.9,255.9-645.3,572.5-1088,680.1c-22.1,5.3-35.7-12.8-44.9-17.5
			c-166.8-84.8-381.7-292.4-516-444.5c-453.8-514.5-506.7-1282.4-572-2074.8c-87.8-1065.9-231.2-2184.4-112.2-3173.3
			c-176.1,441.4-137.9,1049.3-258,1534.3c28.4-751,1.1-1667.1,134.6-2336.3c-146.2,246.7-246.6,528.9-314,836.9
			c44.4-404,47.1-809.9,78.5-1185.6c-145.1-160.3-275.7-332.1-381.4-523C1597.1,37370.7,1734.6,37542.9,1851,37609.3"/>
		<path id="path1202" d="M18810.7,40372.8c15.8,313.3,116.8,635.8,235.5,898c-149.6-185.9-403-413.2-594.4-566.7
			c433.2,639.7,559.2,1518.2,1144.1,2039.9c-378.7-298.5-752.9-769-1110.5-1054.8c452.1,752.9,922.4,1491.5,1660.1,2022.5
			c-318.7-142.6-581.9-357-818.9-566.7c-709.8-628.2-1306.9-1381-1772.2-2205.6c-121.5,29-106.1,135.3-67.2,235.4
			c245.7,633.8,700.9,1196.1,1188.9,1699.9c496.4,512.6,1003.1,1017.5,1660.1,1325.1c977.9-606.1,991.4-2145.6,1065.6-3513.2
			c45-830.9-171.9-1592.1-504.8-2144.7c-544.2,434.3-1114.6,848.2-1704.9,1246.7c-186.5,301-289,788.6-33.7,1089.7
			C19030.5,40719.2,18952.5,40521.2,18810.7,40372.8L18810.7,40372.8z M20493.2,38385.1c480.8-343.5,1003.7-655.9,1402.1-1063.5
			c87.7-155.6,189.5-300.3,280.4-453.4c-82.5,264.3-198.8,502.2-302.8,749.7c125.2-88.7,262.4-260.7,370.1-305.1
			c-111.3,186.7-244.2,356.5-381.4,523.1c23.3,368.4,51.2,792.5,67.3,1176.8c-50-321.3-156.1-599.3-314-836.9
			c161.6,685.3,109,1583.2,145.8,2336.3c-126.1-483.2-70.4-1107.6-269.2-1534.3c158,1040.3-40.2,2124.9-100.9,3199.4
			c-45.6,805.4-144.8,1576.4-605.7,2066.1c-112.7,119.7-419.9,482.8-572.1,427.1c-825.5-301.7-1397.8-951.4-1929.3-1516.9
			c-573.7-610.5-900.5-1324-1245.1-2048.7c-94.4,14.4-77.4,112.1-67.2,174.4c36.1,222,171.9,509.8,224.3,714.9
			c-144.7-236.2-240.7-510.4-403.8-732.4c-10.1,153.2,69.2,283.3,56.1,409.8c-91.2-123.9-148.4-274.1-246.8-392.3
			c-160,50-279.3,131.6-448.6,174.4c964-685.1,1980.3-1323.6,2938.7-2013.9C19568.4,39096.4,20014,38727.5,20493.2,38385.1"/>
		<path id="path1224" d="M10039.2,35787.3c550.9-356.8,834.2-1136,1065.6-1639c-513.7,764.5-1095.4,1564.5-2725.7,1403.5
			c85.5,221.6,374.4,445.8,762.8,470.8C9474.8,36044.1,9838.3,35917.4,10039.2,35787.3L10039.2,35787.3z M8210.9,35499.6
			c920.1-15.3,1594.4-265.3,2041.4-662.6c479.5-426,927.7-929.8,1177.8-1525.6c-220.4,890.8-461.6,1969.8-1144.1,2493.3
			c-257.5,197.4-692,373.3-1200.2,331.2C8601.3,36095.9,8361.7,35819.8,8210.9,35499.6"/>
		<path id="path1226" d="M13684.7,35787.3c201.4,130.4,554.5,252.6,886.1,235.3c403.9-20.9,663.1-239.5,785.1-470.8
			c-1630.4,184-2238.5-680.3-2748.1-1394.9C12884.4,34688.6,13131.6,35429.2,13684.7,35787.3L13684.7,35787.3z M13482.8,34845.8
			c448.8,390.9,1114.8,640,2030.2,653.9c-179.3,380.6-471.8,684.7-1177.8,636.4c-329.6-22.5-675.9-165.6-886.1-322.6
			c-701.7-523.9-933.6-1625-1155.3-2502C12548.4,33909.5,12994.8,34420.9,13482.8,34845.8"/>
		<path id="path1232" d="M9601.8,27383.4c-345.5,200.9-918.2,349.8-1525.5,366.1c-483.7,13-951.7-65.4-1480.6-61
			c-1945.3,15.8-3088.9,888.3-3802.5,1891.7c-376.3,529.1-573.5,1124.5-717.9,1874.3c501.2-418.5,1797.1-536.3,2680.8-723.5
			c793.6-168.2,1598.3-377.2,2265.8-618.9c706.3-255.9,1237.7-643.1,1682.5-1081C9140.1,28602.1,9664,28122.7,9601.8,27383.4
			L9601.8,27383.4z M9467.1,28359.8c-181.4,253.3-445.8,494.6-650.5,688.7c-477.3,452.5-978.8,814.4-1660.1,1107.1
			c-674.4,289.7-1476,501.2-2232.1,653.9c-1047.3,211.5-2442,254.7-2905.1,897.9c0.4-11.9-5.4-19.1-11.3-26.1
			c81.2-1534.1,794.4-2582.1,1862-3295.3c853.6-570.2,1975.6-862.4,3510.9-767.2c461.3,28.5,956.7,76.4,1458.1,8.7
			c358.2-48.4,546.4-229.2,830-348.6C10085.1,27515,9660.2,28090.3,9467.1,28359.8"/>
		<path id="path1234" d="M19506.1,28272.6c-630-338.6-1365.8-572.2-2366.7-584.1c-531.4-6.3-1001.2,72.7-1480.6,61
			c-592.2-14.5-1171.5-146.9-1536.7-374.8c-68,487,172.8,859.4,437.4,1159.4c623,706.2,1237.4,1265.4,2299.5,1630.3
			c650,223.2,1423.7,421.6,2187.2,584.1c742.6,157.9,1666.7,218.9,2277.1,505.6c120.1,56.5,235.1,126.7,314,218
			c9.6,1.6,10.6-3.4,11.2-8.8C21381.3,30022.2,20737.8,28934.5,19506.1,28272.6z M21704.7,31698.7c-0.7,5.3-1.7,10.3-11.3,8.7
			c-70.4-33.4-79.1-124.5-134.6-183c-262.5-277.5-857.7-379.8-1390.9-470.9c-1304.7-222.7-2492.7-427.7-3555.7-871.8
			c-702.5-293.6-1229.1-668-1693.7-1107.1c-203.2-192-461.2-439.9-650.5-706.1c-125.9-176.9-478-604.9-403.9-898
			c24-94.7,114.7-100.8,201.9-191.8c250.6,120.5,433.1,270.5,740.3,331.3c475.6,94,1070,37.6,1536.7,8.7
			c1562.7-96.9,2671.5,201.4,3522.1,775.8C20914.7,29103.5,21663.6,30168.8,21704.7,31698.7"/>
		<path id="path1238" d="M6763.9,29754.6c-1152.5,329.1-2814.1,309.2-3791.2,845.6c235.6-225.7,493-436.2,650.5-697.4
			c272.1-451.1,700.7-785.1,1189-1072.3c646-379.9,1364-688.1,2389.2-810.8c-803.4,195-1568.4,466.4-2063.9,871.8
			c838-450.1,1977.4-665.8,3241.6-784.6c-263.1-86.1-650.4-75.7-953.4-130.8c422.7-75.6,1021.9-23.5,1458.2-26.1
			c327.5-2,435.6-176.7,616.9-252.8c-274.1,235.1-436.6,585.6-639.3,836.9C8392.6,29115.3,7670.1,29495.8,6763.9,29754.6"/>
		<path id="path1240" d="M14862.4,28534.1c-204.2-253.1-379.4-613.6-639.4-845.6c182.5,100.9,312.8,263.4,628.2,261.5
			c439.4-2.7,1037-52,1447,34.9c-321.7,40.7-704.3,33.8-953.5,130.7c1289.8,98.9,2399.3,338,3252.9,775.9
			c-523.3-411.8-1295.8-680.9-2063.9-871.8c1013.3,124.3,1734.1,432,2377.9,810.8c487.8,287,924.4,626.2,1189,1063.5
			c162.3,268.2,429.7,493.4,639.4,706.1c-968.8-547.3-2640.9-508.7-3791.3-845.6C16047.1,29490.5,15325.7,29108.4,14862.4,28534.1"
			/>
		<path id="path1242" d="M1671.5,28019.8c1147.7-976.2,2539.7-2114.3,5137.3-1891.7c313.8,26.9,643.7,101.7,987.1,78.5
			c366.6-24.8,654.2-216,830-348.7c-910.1,231.5-1661.9-167.8-2624.7-165.6c-1170.9,2.5-1915.5,410-2613.5,819.4
			C2675.7,26929.4,2133.4,27443.9,1671.5,28019.8L1671.5,28019.8z M5967.5,25326c512.3-19.9,937.3,31.3,1290,122
			c498.5,128.2,1243.7,500.6,1772.2,157c-59.6,84.8-165.4,142,0,61c-413.9,249-639,641-1301.1,680c-526.5,31-966.8-70.3-1424.6-87.1
			c-1178.7-43.7-2070.8,248.3-2781.7,592.7c-970.1,470.1-1750.5,1026.2-2355.5,1839.4c395.1-896.9,990.7-1581.9,1727.4-2205.6
			C3619.9,25871.1,4620.8,25378.2,5967.5,25326"/>
		<path id="path1244" d="M20336.2,26511.6c-700.6-411-1443.5-816.8-2613.5-819.4c-962.8-2.3-1714.7,397.2-2624.7,165.6
			c175.8,132.7,463.4,323.9,830,348.7c344.2,23.3,685.4-51.6,998.3-78.5c2569-220.8,3975,892.4,5114.8,1900.5
			C21612.6,27448.8,21046.1,26928.1,20336.2,26511.6L20336.2,26511.6z M20201.6,26851.6c-503-243.7-1027.7-408.3-1693.8-523
			c-735.9-126.8-1437.1-10.7-2164.8,17.4c-932.6,36.1-1174.8-356.5-1648.8-680c165.4,81,59.6,23.8,0-61
			c190.5,87,433.3,192,717.8,148.2c399.1-61.6,709.5-216.4,1054.4-305.2c355.1-91.2,785.5-144.7,1301.2-122
			c1342.8,59.2,2334.2,544,3062.1,1159.3c736.5,622.8,1332.3,1309.4,1727.4,2205.6C21951.7,27877,21169.5,27320.6,20201.6,26851.6"
			/>
		<path id="path1250" d="M9489.6,27244c48.1-629.4-205.3-1223.7-314.1-1813.3c-115.7-627.6-184.4-1247.5-235.5-1883.1
			c98.3,614.9,426.4,1108.3,572,1717.4C9652.8,25853.5,9685.9,26664.5,9489.6,27244"/>
		<path id="path1252" d="M14223,27244c-176.2-595.8-152.5-1388-11.2-1979c145.5-608,468.8-1115.1,583.3-1717.4
			C14738.8,24839.1,14314.8,26008.5,14223,27244"/>
		<path id="path1262" d="M3881.2,25073.1c-583.2,330.4-1048.1,706.6-1480.6,1098.5c595.5-421.9,1230.3-890,2041.5-1194.3
			c814.5-305.5,2039.5-370.1,2994.8-95.9c117.9,33.8,221.1,97.4,370.2,113.3c300.1,32.1,488.3-54,695.4-113.3
			c-980.9-13.7-1459-547.8-2602.3-488.2C5128.2,24433.4,4379.7,24790.9,3881.2,25073.1L3881.2,25073.1z M7324.8,24297.3
			c438.8,182,850,513.1,1458.1,496.9c-267,136.4-540.5,360.4-1043.1,322.6c-303.2-22.9-569.5-128.1-863.7-174.4
			c-1284.1-202.1-2412.7,78.5-3196.8,496.9c-591.3,315.5-1118.1,640.4-1570.3,1063.5c376.2-578.3,891.3-1059.3,1559.1-1482.1
			c622.3-393.9,1289-889.4,2288.2-941.4C6476.2,24052.2,6971.6,24150.8,7324.8,24297.3"/>
		<path id="path1264" d="M18934.1,24663.5c-331.3-117-699.9-247.7-1099.2-270.3c-489.1-27.7-923.7,53.9-1290,165.6
			c-409.2,124.7-742.1,378.8-1323.6,313.8c192.7,70.9,404.5,157.6,706.7,122c139.8-16.4,238.8-82,347.7-113.3
			c960.4-276.2,2178.6-206.1,2994.9,95.9c817.7,302.6,1446.6,749.1,2041.4,1203.1C20707.1,25588.3,19936,25017.3,18934.1,24663.5z
			 M20818.5,25884c-949.4-621.6-2236-1217.7-3981.9-941.5c-296.3,46.9-556.9,153.9-863.8,174.4
			c-496.6,33.1-793.7-191.8-1031.9-331.3c429.7,49.2,669.1-130.5,953.4-244.1c181.4-72.4,334.2-173.2,504.8-244
			c347.6-144.1,830.6-246,1368.5-217.9c997.1,51.9,1666.5,547.9,2288.2,941.4c664,420.5,1210,921.6,1547.9,1482.1
			C21401.1,26283.1,21104.3,26071,20818.5,25884"/>
		<path id="path1290" d="M11665.7,22370.7c-372.4,61.8-690.4,377.3-908.6,575.3c340.3-179.7,667.8-436.7,1301.1-383.6
			c385.7,32.3,632.2,251.1,897.3,392.3C12697.6,22704.1,12306.7,22264.1,11665.7,22370.7z M14985.8,21298.4
			c-86.6,234.9-213.3,438.6-269.2,697.5c-577.1-64.2-1223.8-365.5-1918-305.2c-320.6,27.9-526.4,199.3-740.4,331.3
			c44.4,9.1,79.4,25.5,134.6,26.2c380.3-380,1456.9-130.3,1895.6,43.5c-459.6-90.5-1209.4-244.8-1536.6,17.5
			c26.8,181.8,41.9,91.8,168.2,322.6c233.9,172.7,324.5,456.8,572.1,618.9c426.3,87.2,739.9,262,964.6,505.7
			c-180.1-89.9-413.1-264.1-706.6-287.7c-337.1-27-549.2,113.1-830.1,139.5c-544.5,51-1191.9,49.1-1716.2,0
			c-212.9-20-382.2-99.9-583.2-130.8c-453-69.8-720.2,178.7-953.5,270.3c238.6-233.1,539.3-417.8,975.9-496.9
			c228.9-176.6,341.8-443.4,560.8-627.6c182.6-213.7,183.7-244.1,179.5-313.8c-368-275.6-1097.2-88.4-1547.9-26.2
			c461.5-162.6,1515.8-413.1,1906.9-34.8c44.2-9.2,100.1-9.5,123.4-34.9c-229.3-124.9-421.2-296.2-751.6-322.6
			c-688.8-54.8-1332.3,238.8-1906.8,305.2c-62-257-173.9-475.2-280.5-697.5c-54.6,370.2-342.8,558.8-448.6,889.2
			c-1252.3,287.8-2290,789-3286.5,1246.7c767.6-480.3,1676.9-944,2635.9-1299c139.8-51.7,339.8-87.8,426.3-148.2
			c76.4-53.4,139.3-203.4,190.6-287.7c130.1-213.3,251.6-380.8,381.4-575.3c59.7-89.5,86.5-228.7,235.6-261.5
			c131.3,243.7,189.1,544.6,314,793.3c498-107.3,1169.9-275,1794.7-226.6c424.6,32.9,643.2,230.9,897.4,401
			c242.1-177.7,467.3-368.5,886-401c628.5-48.7,1302.3,122.8,1805.9,226.6c103.9-262.1,178.1-547.4,302.9-793.3
			c140.9,32.3,177,162.9,235.6,252.8c132.7,204,266.6,378.4,392.5,584.1c58,94.6,102.8,241.3,190.7,296.4
			c89.1,55.9,283.8,99.8,415.1,148.1c981.9,361.7,1884.7,800.3,2624.7,1299c-998.1-491.4-2027.1-958.5-3275.3-1255.3
			C15332.8,21859.9,15060.6,21655.8,14985.8,21298.4"/>
		<path id="path1292" d="M11149.7,38603.1c221.8,342.9,519.5,648.5,706.6,1002.6c9.5,1.6,10.6-3.4,11.3-8.7
			c358.1-701.9,1142.4-1229.2,1155.2-2153.3c5.2-366.8-147.2-734.4-269.2-1063.5c-358.1-966.6-599.2-2089.8-886-3103.5
			c-264.3,669.1-323.5,1389.3-560.9,2100.9c-110.8,332.1-213.8,671.5-336.5,1002.6c-124,334.5-271.7,698.6-269.2,1054.8
			C10704.1,37884.9,10938.3,38276.4,11149.7,38603.1z M11867.6,32823.3c298,1073.8,657.3,2255,953.3,3339
			c132.7,485.6,443.8,905.6,381.4,1455.8c-113.1,999.5-808.6,1607.3-1323.5,2327.7c-7.6,0-15,0-22.5,0
			c-322.4-333.9-547.2-690.1-807.6-1072.3c-259.1-380.2-472.7-755.5-527.2-1264.1c-59.9-559.8,247.9-958.5,381.4-1447.2
			C11202.9,35064.2,11551.6,33888.3,11867.6,32823.3"/>
		<path id="path1298" d="M9871,33590.4c-324.1,308-319.6,822.4-863.7,985.1c1190.1-251.9,1831.7-1005.7,2254.5-1883.1
			C11008.3,33166.6,10259.5,33221.1,9871,33590.4z M8390.4,34741.1c314.4-88.3,655.5-224.7,852.4-435.9
			c285.7-306.5,266.4-868.8,673-1142c398.4-267.6,969.3-358,1222.7-706.1c126.3-173.7,121.1-349.5,56-514.4
			c457.7,456.8,82.4,1120.9-224.3,1525.6C10453.1,34150.8,9646.6,34706.8,8390.4,34741.1"/>
		<path id="path1300" d="M12473.2,32692.5c394.3,870.5,1045.4,1616.9,2243.4,1891.7c-536.7-171.5-537.8-684.1-863.7-993.8
			C13465.8,33222.5,12715.2,33172.3,12473.2,32692.5L12473.2,32692.5z M14021.1,33346.4c232.5,296.5,235.8,730.8,460,967.6
			c197.6,208.9,557,333.1,852.4,436c-778.4-26.9-1336.7-230.1-1850.7-575.3c-301.3-202.4-530.1-443.5-729.2-706.1
			c-319.3-421.5-684.4-1074.2-213.1-1525.6c-87,175.5-78.4,340.2,33.7,505.6C12860.2,32870.5,13689,32922.8,14021.1,33346.4"/>
		<path class="st4" d="M6348.9,35037.4"/>
		<path class="st0" d="M9713.9,24909.9"/>
	</g>
</g>
<path class="st2" d="M304.4,3496.7"/>
</svg>
