<?xml version="1.0" encoding="utf-8"?>
<!-- Generator: Adobe Illustrator 23.1.0, SVG Export Plug-In . SVG Version: 6.00 Build 0)  -->
<svg version="1.1"
	 id="svg2" xmlns:cc="http://creativecommons.org/ns#" xmlns:dc="http://purl.org/dc/elements/1.1/" xmlns:inkscape="http://www.inkscape.org/namespaces/inkscape" xmlns:rdf="http://www.w3.org/1999/02/22-rdf-syntax-ns#" xmlns:sodipodi="http://sodipodi.sourceforge.net/DTD/sodipodi-0.dtd" xmlns:svg="http://www.w3.org/2000/svg"
	 xmlns="http://www.w3.org/2000/svg" xmlns:xlink="http://www.w3.org/1999/xlink" x="0px" y="0px" viewBox="0 0 2729.4 3655.7"
	 style="enable-background:new 0 0 2729.4 3655.7;" xml:space="preserve">
<style type="text/css">
	.st0{fill:#FFFFFF;}
	.st1{fill:#DB8A9F;}
	.st2{fill:#F9C6D5;}
	.st3{fill:#58595B;}
	.st4{fill:#CED0D1;}
	.st5{fill:#B51521;}
	.st6{fill:#EA1C24;}
</style>
<sodipodi:namedview  bordercolor="#666666" borderopacity="1" gridtolerance="10" guidetolerance="10" id="namedview4" inkscape:pageopacity="0" inkscape:pageshadow="2" inkscape:window-height="480" inkscape:window-width="640" objecttolerance="10" pagecolor="#ffffff">
	</sodipodi:namedview>
<g id="g10" transform="matrix(1.3333333,0,0,-1.3333333,0,6209.6133)" inkscape:groupmode="layer" inkscape:label="ink_ext_XXXXXX">
	<g id="g12" transform="scale(0.1)">
		<path id="path74" class="st0" d="M18888.3,22950.7c-264.6-337.1-530.9-661.3-798-972.9
			C18357.4,22289.4,18623.7,22613.6,18888.3,22950.7"/>
		<path id="path314" class="st0" d="M16259.8,44618.8c379.7-185.2,747.8-375.1,1104.1-568.1
			C17007.6,44243.7,16639.4,44433.7,16259.8,44618.8"/>
		<path id="path316" d="M16259.8,44618.8c379.7-185.2,747.8-375.1,1104.1-568.1C17007.6,44243.7,16639.4,44433.7,16259.8,44618.8"/>
		<path id="path318" class="st0" d="M17363.9,44050.8c237.5-128.7,469.8-258.8,696.8-389.7
			C17833.7,43792,17601.4,43922,17363.9,44050.8"/>
		<path id="path320" d="M17363.9,44050.8c237.5-128.7,469.8-258.8,696.8-389.7C17833.7,43792,17601.4,43922,17363.9,44050.8"/>
		<path id="path338" class="st0" d="M19045.3,43067.3c316.1-198.9,619.8-398.1,911-596.2
			C19665.2,42669.2,19361.4,42868.5,19045.3,43067.3"/>
		<path id="path342" class="st0" d="M18397,43464.1c221.5-131.8,437.7-264.1,648.4-396.7
			C18834.7,43200,18618.5,43332.3,18397,43464.1"/>
		<path id="path344" d="M18397,43464.1c221.5-131.8,437.7-264.1,648.4-396.7C18834.7,43200,18618.5,43332.3,18397,43464.1"/>
		<path id="path384" class="st1" d="M2043.3,28183.4c-16.4,87-33,178.6-82.7,219.2c56.7-186.1,70.5-482.3-23.6-679.7
			c-18.3,269.4-15.6,581.5-111.9,766c55.1-217.8,45.4-573.8-29.3-815.6c-2,150.5-14.3,310.4-31.2,459.3
			c-16.1,141.9-30.8,300.4-108.2,381.3c62.8-217.1,125.6-525,32.7-809.8c9.4,205.1-23.9,377.1-67.7,539.4
			c-38.9,144.4-84.3,288.5-165.1,380c50-131.2,100.1-286.3,103.3-444.4c-105.9,332.9-423.6,522.6-361.2,976
			c74.3-130.5,130.8-276.9,221.1-393.2c-49.8,144.9-127.1,289.3-166.2,428.7c108.9-150.6,219.9-323.5,329.8-458.2
			c-40.9,163.3-142.3,296.7-189,439.9c122.9-138.2,209.5-308.8,325.4-453.2c-76.2,222.1-189.1,411.3-289.6,611.6
			c225.6-169.7,334.9-443.2,488.3-677.3c-120.9,523.3-433.7,875-724.4,1246.7c446.5-251.4,703.2-787.4,885.4-1310.1
			c95.5-274.1,263.5-731.7-29.6-942.1C2074.6,27837.6,2072.1,28030.6,2043.3,28183.4L2043.3,28183.4z M1971,27302.3
			c93.5,208.5,293.6,372.5,315,647.1c17.5,223.5-60.4,459.8-111.4,649.2c-112.4,418.5-248.8,748-502.5,1048.1
			c-150.1,177.3-406.3,405-731.4,351.7c12.4-44.8,79.7-98.3,106.8-152.5c53.8-108,59.6-230.4,57-368.4
			c-2.7-141.3-52.6-277.9-56.3-424.7c-6.6-266.4,102.7-404.3,201.2-591.4c93.2-177.3,198.8-335.8,241.8-555
			c48.3-246.2-4.7-512.7,33.2-741.7c35.9-217.1,141.1-381.1,196.4-591.2C1811.1,26808.5,1859.6,27053.8,1971,27302.3"/>
		<path id="path410" class="st1" d="M872.5,29138.8c-68.9,54.8-254.3,78.3-341.2,56.7c180-50.7,229.2-215.9,275.7-372
			c43-7,81.7-29.7,126.2-17.7C944.7,28899.7,906.3,29008.4,872.5,29138.8"/>
		<path id="path416" class="st1" d="M933.2,29366.1c-90.1,87-272.2,18.9-370.6-20.8c148.4,55.1,256.1,236.3,429,238.3
			c24.8-113.7,27-303.5-29.6-405.9"/>
		<path id="path498" class="st0" d="M394.6,29431.4c86.3,46.9,166.6,91.2,233.2,166.8c5.5,6.3,16-3.1,10.7-9.8
			c-61.6-76.8-143.5-148.3-239.3-171C390.9,29415.5,387.3,29427.4,394.6,29431.4"/>
		<path id="path510_2_" d="M-793.1,30689.4"/>
		<path id="path516" d="M757.3,28408.8c-79.4,12-175.4-27.9-257-13.3C538.7,28455.9,707.1,28474.3,757.3,28408.8"/>
		<path id="path530" d="M1960.6,28402.6c56.7-186.1,70.5-482.3-23.6-679.7c-18.3,269.4-15.6,581.5-111.9,766
			c55.1-217.8,45.4-573.8-29.3-815.6c-2,150.5-14.3,310.4-31.2,459.3c-16.1,141.9-30.8,300.4-108.2,381.3
			c62.8-217.1,125.6-525,32.7-809.8c9.4,205.1-23.9,377.1-67.7,539.4c-38.9,144.4-84.3,288.5-165.1,380
			c50-131.2,100.1-286.3,103.3-444.4c-105.9,332.9-423.6,522.6-361.2,976c74.3-130.5,130.8-276.9,221.1-393.2
			c-49.8,144.9-127.1,289.3-166.2,428.7c108.9-150.6,219.9-323.5,329.8-458.2c-40.9,163.3-142.3,296.7-189,439.9
			c122.9-138.2,209.5-308.8,325.4-453.2c-76.2,222.1-189.1,411.3-289.6,611.6c225.6-169.7,334.9-443.2,488.3-677.3
			c-120.9,523.3-433.7,875-724.4,1246.7c446.5-251.4,703.2-787.4,885.4-1310.1c95.5-274.1,263.5-731.7-29.6-942.1
			c25,189.8,22.5,382.8-6.3,535.7C2026.9,28270.4,2010.3,28362.1,1960.6,28402.6"/>
		<path id="path566" class="st2" d="M3958.8,22820.7c0,0.6,0.4,1,0,1.9c77.9,230.8,116.5,507.6,9.3,816
			c-175.4,504.4-386.6,1102.5-638.6,1440.2c189.8-175.3,395-363.2,580-583.5c194.3-231.5,438.9-535.3,488.8-871.9
			c-63.2,147.7-141,306.7-232.1,386.6c69.8-155.3,121.1-345.2,110.3-487.4c-58.5,162-112.4,331.6-213.1,424.5
			C4291.1,23511.8,4186.6,23049.3,3958.8,22820.7"/>
		<path id="path568" class="st1" d="M6553,22434.5c-46.5,72.9-94.8,149.9-157.7,171.4c120.7-149.4,237.5-410.2,214.2-614.6
			c-111.9,235.4-218.4,515.2-377.3,651.3c130.2-178.3,245-499.4,256.1-737.7c-54.4,134-122.4,273.2-190.9,401.2
			c-65.3,122.1-135.1,259.4-239.3,308.7c137.4-175.3,306.6-431.9,315-714c-62.4,186.1-155.1,330-254.7,462
			c-88.6,117.5-183.4,232.8-294.7,290.6c94.9-102.3,198.2-226.1,256.5-366.4c-220.1,266-597.8,341.3-695.1,765.1
			c118.4-94.7,225-208.7,354.1-285.8c-99.4,114.8-225.6,220.9-312.6,333.8c159.3-102.3,328.6-223.9,483.4-311.6
			c-97.2,133.8-243.2,222.9-338.9,337c168.7-87.1,313.2-213.8,477.3-308.4c-152.2,175.8-329.1,311.4-497.6,460.5
			c280.4-84.7,483.2-296.8,715.5-460.4c-301.4,431.8-730.9,653.3-1145.6,899.2c525.6-92.1,964.5-494.9,1325.7-908
			c189.5-216.7,514-575.8,300.1-850.9C6704.5,22134.8,6634.6,22306.5,6553,22434.5L6553,22434.5z M6789.9,21625.6
			c18.8,214.1,157.7,420.1,82.8,671.9c-61,204.9-219.9,393-336,547.1c-256.4,340.6-505.1,594.7-858.8,787.4
			c-209.1,113.9-539.7,241.4-840,97.2c27.8-36.4,112.5-64.2,158-104.7c90.4-80.5,139-188.2,184.6-312.3
			c46.7-127.1,45.5-264,93.2-396.3c86.6-240.1,241.9-330.9,403.8-468.9c153.4-130.8,312.2-241.2,431-424.3
			c133.4-205.7,174.5-459.6,291.6-653c111-183.5,271.4-298.7,399-470.1C6805.6,21136.8,6767.5,21370.4,6789.9,21625.6"/>
		<path id="path594" class="st1" d="M5071.3,22940.9c-86.6,28.5-276.6-5.6-354.4-50.6c194.3,8,300.2-125,400.2-250.6
			c44.7,6.5,90.5-2.2,129.9,21.7C5225.6,22748.6,5150.1,22834.3,5071.3,22940.9"/>
		<path id="path598" class="st1" d="M6000.9,22061.1c-142.7,204.9-414.4,172-641.2,144.9c-197.8-23.6-472.3-70.8-646.7-160.7
			c146.3,69.7,323.6,132.7,459.8,217.1c231.9,144,53.8,412.5-72.3,588.1c117.9-27,261.7-185.2,362.5-259.1
			c134.2-98.5,383.6-284.1,423.4-437.4c-24.1-3.2-41.5,7.4-52.5,31.9"/>
		<path id="path600" class="st1" d="M5051.5,23162c-118.8,50.9-273.5-64.1-356.2-128.6c126.3,93.3,168.5,287.2,337.5,340.3
			c64-94.2,132.4-263.3,112.8-371.6"/>
		<path id="path682" class="st0" d="M4500.6,23060.5c68.1,67.5,131.6,130.9,170.3,218.2c3.2,7.3,16.8,1.9,13.9-5.5
			c-33.7-87-88.9-175.2-174.9-223.9C4502.5,23045.2,4494.8,23054.8,4500.6,23060.5"/>
		<path id="path692" d="M3157.8,24551.8c40.4-95.6,81.3-234.5,29.6-302.1C3139.2,24342.6,3167.4,24455.6,3157.8,24551.8"/>
		<path id="path700" d="M5213.3,22254.2c-82.1-12.7-162.3-77.1-247.3-88.1C4982.5,22231.4,5141.2,22297.7,5213.3,22254.2"/>
		<path id="path714" d="M6395.3,22605.9c120.7-149.4,237.5-410.2,214.2-614.6c-111.9,235.4-218.4,515.2-377.3,651.3
			c130.2-178.3,245-499.4,256.1-737.7c-54.4,134-122.4,273.2-190.9,401.2c-65.3,122.1-135.1,259.4-239.3,308.7
			c137.4-175.3,306.6-431.9,315-714c-62.4,186.1-155.1,330-254.7,462c-88.6,117.5-183.4,232.8-294.7,290.6
			c94.9-102.3,198.2-226.1,256.5-366.4c-220.1,266-597.8,341.3-695.1,765.1c118.4-94.7,225-208.7,354.1-285.8
			c-99.4,114.8-225.6,220.9-312.6,333.8c159.3-102.3,328.6-223.9,483.4-311.6c-97.2,133.8-243.2,222.9-338.9,337
			c168.7-87.1,313.2-213.8,477.3-308.4c-152.2,175.8-329.1,311.4-497.6,460.5c280.4-84.7,483.2-296.8,715.5-460.4
			c-301.4,431.8-730.9,653.3-1145.6,899.2c525.6-92.1,964.5-494.9,1325.7-908c189.5-216.7,514-575.8,300.1-850.9
			c-41.8,177.1-111.7,348.8-193.3,476.8C6506.5,22507.4,6458.3,22584.5,6395.3,22605.9"/>
		<path id="path754" class="st1" d="M18420.9,27647.8c-293.1,210.4-125.1,668-29.5,942.1c182.1,522.8,438.9,1058.7,885.4,1310.1
			c-290.6-371.6-603.4-723.4-724.4-1246.7c153.5,234.1,262.9,507.6,488.3,677.3c-100.5-200.3-213.4-389.6-289.6-611.6
			c116.1,144.4,202.6,315,325.4,453.2c-46.7-143.2-148.1-276.5-188.9-439.9c109.8,134.8,220.8,307.6,329.8,458.2
			c-39.2-139.4-116.5-283.8-166.2-428.7c90.3,116.3,146.8,262.7,221.1,393.2c62.3-453.5-255.3-643.1-361.3-976
			c3.2,158,53.3,313.1,103.4,444.4c-80.9-91.6-126.3-235.6-165.2-380c-43.8-162.3-77.1-334.2-67.6-539.4
			c-93,284.7-30,592.7,32.7,809.8c-77.4-81-92.2-239.4-108.3-381.3c-16.8-148.9-29.2-308.8-31.1-459.3
			c-74.9,241.8-84.5,597.8-29.3,815.6c-96.3-184.4-93.7-496.6-111.9-766c-94.1,197.5-80.4,493.6-23.7,679.7
			c-49.7-40.6-66.3-132.2-82.7-219.2C18398.4,28030.6,18395.8,27837.6,18420.9,27647.8L18420.9,27647.8z M18749.7,26573.3
			c55.3,210.1,160.5,374,196.4,591.2c37.8,229.1-15.1,495.4,33.2,741.7c42.9,219.2,148.5,377.7,241.8,555
			c98.4,187.2,207.6,325.1,201.1,591.4c-3.6,146.8-53.6,283.4-56.3,424.7c-2.6,138,3.3,260.5,57.1,368.4
			c27,54.4,94.4,107.7,106.8,152.5c-325.2,53.3-581.3-174.4-731.4-351.7c-253.9-300-390.1-629.6-502.6-1048.1
			c-50.9-189.4-128.8-425.7-111.4-649.2c21.5-274.6,221.6-438.6,315.1-647.1C18610.8,27053.8,18659.4,26808.5,18749.7,26573.3"/>
		<path id="path780" class="st1" d="M19598.1,29138.8c68.9,54.8,254.3,78.3,341.2,56.7c-180.1-50.7-229.3-215.9-275.8-372
			c-43-7-81.7-29.7-126.2-17.7C19525.8,28899.7,19564.1,29008.4,19598.1,29138.8"/>
		<path id="path786" class="st1" d="M19537.3,29366.1c90.1,87,272.2,18.9,370.7-20.8c-148.5,55.1-256.1,236.3-429.1,238.3
			c-24.8-113.7-26.9-303.5,29.6-405.9"/>
		<path id="path868" class="st0" d="M20075.9,29431.4c-86.2,46.9-166.6,91.2-233.2,166.8c-5.5,6.3-16-3.1-10.7-9.8
			c61.7-76.8,143.5-148.3,239.4-171C20079.6,29415.5,20083.2,29427.4,20075.9,29431.4"/>
		<path id="path886" d="M19713.3,28408.8c79.4,12,175.4-27.9,256.9-13.3C19931.9,28455.9,19763.4,28474.3,19713.3,28408.8"/>
		<path id="path900" d="M18509.9,28402.6c-56.7-186.1-70.4-482.3,23.7-679.7c18.2,269.4,15.6,581.5,111.9,766
			c-55.1-217.8-45.5-573.8,29.3-815.6c1.9,150.5,14.3,310.4,31.1,459.3c16.1,141.9,30.9,300.4,108.3,381.3
			c-62.8-217.1-125.7-525-32.7-809.8c-9.5,205.1,23.8,377.1,67.6,539.4c38.9,144.4,84.3,288.5,165.2,380
			c-50.1-131.2-100.2-286.3-103.4-444.4c105.9,332.9,423.6,522.6,361.3,976c-74.3-130.5-130.8-276.9-221.1-393.2
			c49.7,144.9,127,289.3,166.2,428.7c-109-150.6-220-323.5-329.8-458.2c40.9,163.3,142.3,296.7,188.9,439.9
			c-122.8-138.2-209.4-308.8-325.4-453.2c76.3,222.1,189.1,411.3,289.6,611.6c-225.5-169.7-334.9-443.2-488.3-677.3
			c121,523.3,433.8,875,724.4,1246.7c-446.4-251.4-703.3-787.4-885.4-1310.1c-95.6-274.1-263.6-731.7,29.5-942.1
			c-25,189.8-22.4,382.8,6.4,535.7C18443.6,28270.4,18460.2,28362.1,18509.9,28402.6"/>
		<path id="path936" class="st2" d="M16511.6,22820.7c0,0.6-0.4,1,0.1,1.9c-77.9,230.8-116.6,507.6-9.3,816
			c175.4,504.4,386.5,1102.5,638.5,1440.2c-189.8-175.3-395-363.2-579.9-583.5c-194.4-231.5-438.9-535.3-488.9-871.9
			c63.3,147.7,141.1,306.7,232.1,386.6c-69.8-155.3-121.1-345.2-110.3-487.4c58.6,162,112.4,331.6,213.1,424.5
			C16179.4,23511.8,16283.8,23049.3,16511.6,22820.7"/>
		<path id="path938" class="st1" d="M13724.2,21957.7c-213.9,275.1,110.7,634.2,300.1,850.9c361.2,413.1,800.1,815.9,1325.7,908
			c-414.8-245.9-844.2-467.3-1145.7-899.2c232.3,163.7,435,375.8,715.5,460.4c-168.5-149.2-345.3-284.8-497.6-460.5
			c164.2,94.6,308.7,221.4,477.4,308.4c-95.8-114.1-241.8-203.2-338.9-337c154.8,87.8,324,209.3,483.4,311.6
			c-87.1-112.9-213.3-219-312.7-333.8c129.1,77.1,235.7,191.2,354.1,285.8c-97.2-423.8-475-499.1-695.1-765.1
			c58.3,140.3,161.7,264,256.6,366.4c-111.3-57.8-206.1-173-294.7-290.6c-99.6-132-192.4-275.9-254.7-462
			c8.3,282.1,177.5,538.7,314.9,714c-104.1-49.3-174-186.6-239.3-308.7c-68.6-128.1-136.4-267.3-190.9-401.2
			c11.1,238.3,125.9,559.4,256.1,737.7c-158.9-136.3-265.3-416-377.3-651.3c-23.3,204.4,93.7,465,214.2,614.6
			c-62.9-21.5-111.2-98.5-157.6-171.4C13835.8,22306.5,13766,22134.8,13724.2,21957.7L13724.2,21957.7z M13671.3,20899.7
			c127.6,171.4,288,286.5,399,470.1c117.1,193.5,158.3,447.3,291.6,653c118.8,183.1,277.7,293.5,431,424.3
			c161.9,138,317.2,228.8,403.9,468.9c47.7,132.3,46.4,269.2,93.1,396.3c45.7,124.1,94.2,231.8,184.7,312.3
			c45.4,40.5,130.2,68.3,158,104.7c-300.2,144.1-630.9,16.7-839.9-97.2c-353.7-192.8-602.4-446.9-858.9-787.4
			c-116.1-154.1-275-342.2-335.9-547.1c-75-251.8,64-457.8,82.8-671.9C13703,21370.4,13665,21136.8,13671.3,20899.7"/>
		<path id="path964" class="st1" d="M15399.2,22940.9c86.7,28.5,276.7-5.6,354.4-50.6c-194.3,8-300.2-125-400.2-250.6
			c-44.7,6.5-90.5-2.2-129.9,21.7C15244.8,22748.6,15320.4,22834.3,15399.2,22940.9"/>
		<path id="path968" class="st1" d="M14469.6,22061.1c142.7,204.9,414.5,172,641.2,144.9c197.9-23.6,472.3-70.8,646.7-160.7
			c-146.3,69.7-323.6,132.7-459.8,217.1c-231.8,144-53.8,412.5,72.3,588.1c-117.8-27-261.7-185.2-362.4-259.1
			c-134.3-98.5-383.7-284.1-423.5-437.4c24.1-3.2,41.5,7.4,52.5,31.9"/>
		<path id="path970" class="st1" d="M15419.1,23162c118.7,50.9,273.4-64.1,356.2-128.6c-126.4,93.3-168.6,287.2-337.5,340.3
			c-64-94.2-132.4-263.3-112.8-371.6"/>
		<path id="path1052" class="st0" d="M15970,23060.5c-68.2,67.5-131.6,130.9-170.4,218.2c-3.2,7.3-16.8,1.9-13.8-5.5
			c33.6-87,88.9-175.2,174.9-223.9C15968,23045.2,15975.7,23054.8,15970,23060.5"/>
		<path id="path1062" d="M17312.7,24551.8c-40.4-95.6-81.2-234.5-29.5-302.1C17331.4,24342.6,17303.1,24455.6,17312.7,24551.8"/>
		<path id="path1070" d="M15257.2,22254.2c82.1-12.7,162.2-77.1,247.3-88.1C15488.1,22231.4,15329.2,22297.7,15257.2,22254.2"/>
		<path id="path1084" d="M14075.2,22605.9c-120.6-149.4-237.5-410.2-214.2-614.6c112,235.4,218.4,515.2,377.3,651.3
			c-130.2-178.3-245-499.4-256.1-737.7c54.5,134,122.4,273.2,190.9,401.2c65.3,122.1,135.2,259.4,239.3,308.7
			c-137.4-175.3-306.6-431.9-314.9-714c62.3,186.1,155.1,330,254.7,462c88.6,117.5,183.4,232.8,294.7,290.6
			c-94.9-102.3-198.3-226.1-256.6-366.4c220.1,266,597.9,341.3,695.1,765.1c-118.4-94.7-225-208.7-354.1-285.8
			c99.5,114.8,225.6,220.9,312.7,333.8c-159.4-102.3-328.6-223.9-483.4-311.6c97.1,133.8,243.1,222.9,338.9,337
			c-168.8-87.1-313.2-213.8-477.4-308.4c152.2,175.8,329.1,311.4,497.6,460.5c-280.4-84.7-483.1-296.8-715.5-460.4
			c301.5,431.8,730.9,653.3,1145.7,899.2c-525.6-92.1-964.6-494.9-1325.7-908c-189.4-216.7-514-575.8-300.1-850.9
			c41.8,177.1,111.7,348.8,193.4,476.8C13963.9,22507.4,14012.2,22584.5,14075.2,22605.9"/>
		<path id="path1088" class="st3" d="M3979.6,29466.9c-5.9-0.4-11.4-1.3-9.7-8.7c389.4-316.9,895.3-563.7,1456.3-749.7
			c551.9-183,1315.4-200.5,1970.8-279c-275.7,132.3-610.6,133.6-922.3,191.8C5541.6,28795.5,4652.2,29054.4,3979.6,29466.9"/>
		<path id="path1090" class="st3" d="M13096,28420.8c671.8,92.2,1408.7,108.3,1961.1,287.8c565.4,183.7,1060.8,424.5,1456.3,741
			c2.1,11,15.1,17.8-9.8,17.4c-682.4-426.2-1553-669.3-2495.1-845.6C13703.9,28564.3,13367.1,28566.7,13096,28420.8"/>
		<path id="path1092" class="st3" d="M11199.7,24027.4c-229.5-141.2-442.8-360-776.6-392.3c-548.1-53-831.6,204-1126.2,383.6
			c188.9-198.1,464.1-513.6,786.4-575.3C10638.1,23336.7,10976.4,23776.7,11199.7,24027.4"/>
		<path id="path1094" class="st0" d="M1523.4,39012.9c58.3-307.9,145.2-590.2,271.8-836.9c-115.5,669.3-91.9,1585.3-116.5,2336.3
			c104-485,70.9-1092.9,223.3-1534.3c-103,988.9,21.1,2107.4,97.1,3173.3c56.5,792.4,102.3,1560.3,495.1,2074.8
			c116.2,152.1,302.2,359.7,446.6,444.5c8,4.7,19.7,22.8,38.9,17.5c383.2-107.6,681.3-424.2,941.7-680.1
			c815.4-800.9,1442.8-1731.5,1834.9-2902.9c91.7,8.7,77,100,67.9,165.6c-30.6,221.6-146.9,518.2-194.1,723.5
			c119.7-238.3,215.5-498.1,339.8-732.4c26.2,139.9-40.9,271.3-48.6,409.8c89.8-114.1,139.7-264,213.5-392.3
			c148.2,44.2,247.5,132.4,398.1,174.4c-834.4-685.2-1714.3-1323.7-2543.6-2013.9c-413-343.6-798.7-712.5-1213.6-1054.8
			c-414.6-342.2-861.5-656.4-1213.5-1054.8c-69.6-164.2-165.1-305.2-242.8-462c72.6,260.3,166.8,501.2,262.2,741
			c-100.7-66.5-219.8-238.6-320.4-305.2c91.5,191,204.5,362.7,330.1,523C1564.2,38203,1561.8,38608.8,1523.4,39012.9L1523.4,39012.9
			z M14348.3,41279.5c85.2,118.3,134.7,268.5,213.6,392.3c11.3-126.5-57.3-256.6-48.6-409.8c141.2,222,224.3,496.1,349.5,732.4
			c-45.4-205.1-162.9-492.9-194.1-714.9c-8.8-62.2-23.5-160,58.2-174.4c298.3,724.7,581.1,1438.2,1077.7,2048.7
			c460,565.5,955.4,1215.2,1669.9,1516.9c131.7,55.7,397.6-307.5,495.2-427.1c398.9-489.7,484.8-1260.7,524.3-2066.1
			c52.5-1074.5,224.1-2159.1,87.3-3199.4c172.1,426.7,123.9,1051.1,233,1534.3c-31.9-753.1,13.7-1651.1-126.2-2336.3
			c136.7,237.6,228.5,515.5,271.8,836.9c-13.9-384.4-38.1-808.4-58.3-1176.8c118.8-166.6,233.8-336.4,330.1-523.1
			c-93.2,44.4-212,216.3-320.3,305.1c90-247.5,190.7-485.4,262.1-749.7c-78.7,153.1-166.8,297.7-242.7,453.4
			c-344.8,407.7-797.4,720-1213.6,1063.5c-414.8,342.4-800.5,711.3-1213.6,1054.8c-829.5,690.1-1709.2,1328.8-2543.6,2013.9
			C14106.6,41411.1,14209.8,41329.5,14348.3,41279.5L14348.3,41279.5z M19794.8,36414.9c33.9,762,82.3,1528.8,77.6,2292.8
			c-9.3,1541.7-180.1,2943.4-553.4,4228.1c-278.2,957.7-699.3,1715.5-1174.6,2484.6c-152.9,247.4-336.4,528.8-582.6,662.5
			c-96.7,52.6-227.7,102.7-378.6,61c-206.4-56.9-485.5-261.5-650.5-409.7c-953.5-856.1-1540.7-1916.6-2242.6-2964
			c-202.5-302.3-377.8-632.8-572.8-976.4c-48-84.6-154-285.3-233-296.4c-63-8.8-249.5,54-359.2,78.5
			c-860.2,191.8-1870.2,270.3-2883.5,270.3c-1218.9,0-2250.7-132.1-3242.7-348.7c-9.7,0-11.5,7.1-19.4,8.8
			c-774.9,1199.8-1521.8,2588.2-2495.1,3678.8c-290.6,325.8-688.8,789.3-1145.6,950.2c-445.8,157-727.1-338.6-893.1-566.7
			c-179.9-247-336.1-510.5-475.7-749.7c-1203.8-2062-1445.7-5048.6-1281.6-8168.5c39.7-753.8-76.3-1498.9-135.9-2223
			c-59.9-728.1-107.8-1501.3-87.3-2266.6c20.7-776.6,10.2-1548.6,97-2275.4c327.1-2736.5,1479.6-4923.1,3184.4-6581.9
			c834.2-811.7,1797.7-1509.2,2873.8-2144.7c767-452.9,1563.9-972.6,2446.5-1342.5c331.3-138.9,590.7-226.7,1048.5-226.7
			c223.8,0,462.6-26.8,631.1,0c179,28.5,320.2,94.4,485.5,157c900,341.1,1729.3,852.4,2475.6,1316.5
			c535.2,332.7,1049.6,640.1,1524.3,993.8c483.6,360.4,929.1,721,1378.5,1124.5c862.5,774.5,1586.3,1762.3,2126.2,2815.8
			c561.4,1095.4,963.3,2275.9,1165,3678.9c205,1426.3,134.6,3016.8,58.3,4524.5C19923.7,34914.6,19761,35656,19794.8,36414.9"/>
		<path class="st4" d="M9794.2,29182.8c-38.9,22.1-77.5,44.7-115.5,67.7C9719.8,29232.4,9758.5,29209.9,9794.2,29182.8z"/>
		<path id="path1132" class="st5" d="M2231.7,38411.7c181.5,113.3,315.7,278.1,426.5,449.9c359.2,557,503.3,1223.4,402.4,1860.6
			c96-333.4,162.6-673.6,199.1-1016.4c119.4,920.8,198,1877.8-139.2,2753.9c223.2-364.9,395.6-754.8,512-1157.8
			c-94.3,897.1-214.8,1843.6-816.3,2564.9c111.1,7.8,204.5-70.4,278.8-145c433.4-435.8,755.8-949.5,1074.7-1458.8
			c149.6-238.8,300.1-479.6,394-740.3c62.4-173.1,99.2-355.6,85.7-537.3c-20.3-273.8-152.9-530.8-307.6-767.5
			c-263.3-402.5-597.7-767.4-987-1076.7c-339.7-270-726.8-503.9-979.3-842.3"/>
		<path id="path1134" class="st6" d="M5134.9,27552.3c833.3-2.9,1484.1,513.9,2271.8,214.3c-152.2,171.8-401.1,419.2-718.4,451.3
			c-297.2,30-582.8-66.8-854.4-101.6c-2248.3-288-3453.2,1184.9-4446.5,2448.2c399.8-745.3,869.2-1411.2,1485.4-1951.9
			C3477,28082.9,4121.5,27555.5,5134.9,27552.3"/>
		<path id="path1136" class="st6" d="M7299.9,26502.9c-179.3,76.8-342.1,188.2-601.9,146.6c-129.1-20.5-218.4-102.9-320.4-146.6
			c-826.8-354.9-1887.1-271.2-2592.1,124.1c-702.1,393.8-1251.6,999.6-1767,1545.7c374.3-507.3,776.7-994.2,1281.5-1421.7
			c431.5-365.2,1079.3-828,1747.5-879.9C6037.1,25794,6450.9,26485.2,7299.9,26502.9"/>
		<path id="path1138" class="st6" d="M17343.3,32260.4c-229-566-606.9-1005.1-1029.1-1376.4
			c-557.2-490.2-1181.1-888.3-2058.2-1049.3c664.8,247.1,1333.4,595.4,1786.4,1128.3c-738.8-566.9-1699.1-876.3-2815.5-1004.2
			c215.7-125.4,546.8-116.6,825.3-169.1c-354.9-112.5-872.1-48.7-1252.4-45.1c-273,2.4-385.8-208-543.7-338.5
			c225,300.2,376.7,766.8,553.4,1094.4c401,743.2,1025.4,1237.8,1805.8,1579.6c995.7,436,2443,386,3281.5,1094.4
			C17715.3,32899,17483.8,32607.5,17343.3,32260.4L17343.3,32260.4z M18673.4,34302.7c-68.3-118-167.8-209.1-271.8-282.1
			c-528.3-370.9-1328.2-450-1970.9-654.4c-660.8-210.1-1330.5-467-1893.1-755.9c-919.3-472.3-1451.1-1195.9-1990.3-2109.9
			c-229-388.3-437.4-870.4-378.6-1500.5c316.1,294.9,817.5,466.4,1330.1,485.1c414.9,15.2,821.6-87.1,1281.5-78.9
			c866.3,15.4,1503.2,317.7,2048.5,755.9c1066.1,856.6,1623.1,2264.3,1854.3,4129.4
			C18682.6,34298.2,18681.7,34304.7,18673.4,34302.7"/>
		<path id="path1142" class="st6" d="M8168.8,29417.2c-156.9,98.6-250.5,324.6-534,327.2c-377.6,3.5-896.3-64-1262.1,33.8
			c262.3,71.3,597.5,57.8,825.2,169.3c-1094.2,153.7-2080.4,432.9-2805.7,1015.5c428.9-524.7,1091-875.8,1786.4-1128.3
			c-887.3,159-1508.8,557.5-2067.9,1049.3c-422.6,371.7-793.6,804-1029.1,1387.8c-136.3,338-359.1,610.5-563,902.6
			c845.7-694.2,2283.9-668.4,3281.4-1094.4c784.4-335,1409.7-827.4,1815.6-1579.6C7790.9,30175.2,7931.6,29721.6,8168.8,29417.2
			L8168.8,29417.2z M6023.2,32542.5c-577.7,312.8-1274.2,583.3-1961.1,801c-764.9,242.4-1886.5,395-2320.3,936.3
			c125-970.4,295.7-1740.9,621.4-2425.7c617.6-1298.6,1607.5-2427.8,3291.2-2448.2c457.8-5.6,862.9,95.8,1281.5,78.9
			c525.6-21.1,1021.3-213.9,1320.4-473.8c53.8,956.9-399.6,1577.2-776.7,2132.5C7094.5,31710.3,6634.6,32211.5,6023.2,32542.5"/>
		<path id="path1144" class="st6" d="M16591,39788.7c510.9-398.4,1004.6-812.4,1475.7-1246.7c288.1,552.5,475.9,1313.7,436.9,2144.7
			c-64.2,1367.6-75.9,2907.2-922.3,3513.2c-568.7-307.6-1007.2-812.5-1436.9-1325.1c-422.4-503.8-816.4-1066.1-1029-1699.9
			c-33.7-100.1-47-206.5,58.2-235.4c402.7,824.7,919.5,1577.4,1533.9,2205.6c205.1,209.6,432.9,424.1,708.8,566.7
			c-638.5-531-1045.6-1269.6-1436.9-2022.5c309.5,285.8,633.4,756.3,961.2,1054.8c-506.3-521.8-615.3-1400.3-990.3-2039.9
			c165.7,153.5,385,380.7,514.5,566.7c-102.7-262.2-190.2-584.7-203.8-898c122.7,148.5,190.2,346.4,300.9,505.6
			C16340.9,40577.3,16429.6,40089.7,16591,39788.7"/>
		<path id="path1146" class="st6" d="M14591,28116.4c-270.8,34.8-566.1,131.7-864.1,101.6c-317.3-32.1-566.2-279.5-718.4-451.3
			c787.6,299.6,1438.4-217.3,2271.8-214.3c1012.7,3.5,1655.7,528.6,2262.1,1060.4c614.4,539,1104.8,1212.9,1475.7,1963.2
			C18031.5,29271.3,16814.6,27830.6,14591,28116.4"/>
		<path id="path1150" class="st6" d="M3902,39788.7c157,272.6,219.8,714.5,83.5,1008.3c-14.6,28.1-29.4,55.8-44.7,81.5
			c17.1-25.4,31.4-52.9,44.7-81.5c78.2-150,151.4-323.6,256.3-415.5c-37.8,329.3-110.9,626.9-213.6,897.9
			c135.9-209.3,357-434.8,514.6-566.7c-378.4,636.6-489.8,1513-990.3,2039.9c344.2-330.2,628.6-760.7,970.9-1063.5
			c-398.7,740.4-824,1503.4-1436.9,2022.5c1006.4-688.7,1674.6-1681.3,2232.9-2772.3c109.6,30.9,88.2,146.4,58.3,235.4
			c-212.7,633.8-606.5,1195.9-1029,1699.9c-430.5,513.6-869.2,1024.6-1446.6,1325.1c-837.2-618-845.6-2153.2-912.6-3522
			c-41.3-842.9,154.2-1583,436.9-2135.8C2897,38976.6,3391.2,39390.1,3902,39788.7"/>
		<path id="path1152" class="st6" d="M14027.9,26502.9c-94.3,40.6-179.9,125.4-300.9,146.6c-261.6,46-444.9-66.2-611.7-157.9
			c503.3,84.2,791.4-244.7,1145.6-406.1c317-144.5,693.2-250.1,1116.5-214.3c345.6,29.1,664.6,198.2,951.4,349.8
			c867.2,458,1534.6,1197,2058.2,1963.2c-514.8-587.5-1059.2-1165.4-1766.9-1557C15913.6,26236.2,14859.2,26145.5,14027.9,26502.9"
			/>
		<path id="path1192" class="st0" d="M460.3,38468.3c0,0,594.7-1538.3,800.9-548.8s-432.8,3076.7,345.1,4939.3
			s837.6,2909.2,74.1,1627.8c-763.4-1281.5-1306.8-2903-1220.1-3507.1C547.1,40375.5,460.3,38468.3,460.3,38468.3"/>
		<path id="path1194" class="st0" d="M19993.4,38468.3c0,0-594.7-1538.3-800.9-548.8s432.9,3076.7-345,4939.3
			c-777.9,1862.6-837.6,2909.2-74.1,1627.8c763.4-1281.5,1306.7-2903,1220-3507.1C19906.8,40375.5,19993.4,38468.3,19993.4,38468.3"
			/>
		<path id="path1196" d="M19901.6,29676.1c-201.7-1403-603.6-2583.5-1165-3678.9c-539.9-1053.5-1263.7-2041.3-2126.2-2815.8
			c-449.5-403.6-895-764.1-1378.5-1124.5c-474.7-353.7-989-661.1-1524.3-993.8c-746.4-464-1575.6-975.3-2475.6-1316.5
			c-165.2-62.6-306.5-128.4-485.5-157c-168.4-26.8-407.2,0-631.1,0c-457.8,0-717.2,87.8-1048.5,226.7
			c-882.7,369.9-1679.5,889.5-2446.5,1342.5c-1076,635.4-2039.6,1333-2873.8,2144.7c-1704.8,1658.8-2857.3,3845.3-3184.4,6581.9
			c-86.8,726.7-76.3,1498.8-97,2275.4c-20.4,765.3,27.4,1538.5,87.3,2266.6c59.6,724.2,175.6,1469.3,135.9,2223
			C524.3,39770.3,766.2,42757,1970,44819c139.6,239.2,295.8,502.7,475.7,749.7c166.1,228.1,447.4,723.6,893.1,566.7
			c456.8-160.8,855-624.5,1145.6-950.2c973.3-1090.7,1720.2-2479,2495.1-3678.8c7.9-1.7,9.7-8.8,19.4-8.8
			c992,216.6,2023.8,348.7,3242.7,348.7c1013.3,0,2023.3-78.5,2883.5-270.3c109.7-24.5,296.2-87.3,359.2-78.5
			c79,11.1,185.1,211.8,233,296.4c195,343.6,370.3,674.1,572.8,976.4c701.9,1047.4,1289.1,2107.9,2242.6,2964
			c165.1,148.2,444.1,352.9,650.5,409.7c150.9,41.6,281.9-8.4,378.6-61c246.2-133.8,429.7-415.1,582.6-662.5
			c475.4-769.1,896.4-1526.9,1174.6-2484.6c373.3-1284.7,544.2-2686.5,553.4-4228.1c4.7-763.9-43.7-1530.8-77.6-2292.8
			c-33.8-759,128.9-1500.3,165.1-2214.3C20036.2,32693,20106.7,31102.5,19901.6,29676.1L19901.6,29676.1z M20270.5,35796
			c-73.2,866.6,75.7,1739.8,48.6,2615.4c-28,902.2-48.9,1758.9-165.1,2589.2c-287.2,2052.3-871,3756.3-1951.4,5082.4
			c-204.5,251.1-534.8,518.2-970.9,479.4c-397.1-35.3-707.9-295.2-912.6-549.2c-1079.9-1340.3-2029.2-2694.3-3058.2-4097.4
			c-788.9,321.3-1923.2,255.3-3009.6,252.8c-1086.2-2.5-2222.7,75.4-3009.6-252.8c-6.5,0-13,0-19.5,0
			c-599,821.8-1183.5,1654-1815.5,2519.5c-290.3,397.3-648.3,786.4-961.2,1211.7c-140.3,190.9-279.2,432.8-485.4,601.6
			c-181.2,148.4-493.5,337.9-796.1,322.6c-783.7-39.7-1164.8-880.4-1495-1421c-737.8-1207.5-1114.6-2597.3-1339.9-4263.1
			c-167.3-1237.4-180.6-2594.2-116.5-3905.5c21.6-441.4,32.4-865.4,0-1299.1c-64-857-139-1708.9-184.4-2571.7
			c-94.6-1798.5,47.7-3612.7,436.9-5047.6c782.6-2885.4,2551.2-5005.4,4864-6573.2c580.3-393.5,1179-744.9,1796.1-1115.9
			c612.1-368.1,1246.2-724.8,1941.7-993.9c384.3-148.7,787.8-243.7,1252.4-226.6c456.3,16.9,834.7,109.1,1213.6,261.5
			c695.7,280.1,1305.5,640.4,1922.3,1011.3c1227.2,737.9,2439.4,1460.3,3407.6,2406c986.9,964.1,1810.4,1995.1,2427.1,3286.7
			c607.2,1271.4,1051.1,2695.2,1145.6,4437.3C20531.7,32328,20414.1,34097.7,20270.5,35796"/>
		<path id="path1198" d="M3985.5,40797c-13.2,28.5-27.6,56.1-44.7,81.5C3956.1,40852.7,3970.9,40825.1,3985.5,40797"/>
		<path id="path1200" d="M1989.4,40677.9c67,1368.7,75.4,2904,912.6,3522c577.4-300.6,1016.1-811.6,1446.6-1325.1
			c422.6-504,816.3-1066.2,1029-1699.9c29.9-89,51.3-204.5-58.3-235.4c-558.4,1091-1226.6,2083.6-2232.9,2772.3
			c612.9-519.1,1038.2-1282.1,1436.9-2022.5c-342.2,302.9-626.6,733.4-970.9,1063.5c500.5-526.9,611.8-1403.3,990.3-2039.9
			c-157.5,131.8-378.7,357.4-514.6,566.7c102.7-271.1,175.8-568.6,213.6-897.9c-104.9,91.8-178.1,265.4-256.3,415.5
			c136.2-293.7,73.5-735.6-83.5-1008.3c-510.8-398.6-1005-812.1-1475.7-1246.7C2143.6,39094.9,1948.1,39835,1989.4,40677.9
			L1989.4,40677.9z M1581.6,37609.3c-95.4-239.9-189.6-480.8-262.2-741c77.7,157,173.2,297.8,242.8,462
			c352,398.5,798.9,712.6,1213.5,1054.8c414.9,342.4,800.5,711.3,1213.6,1054.8c829.4,690.1,1709.3,1328.7,2543.6,2013.9
			c-150.6-42-249.9-130.1-398.1-174.4c-73.8,128.4-123.8,278.2-213.5,392.3c7.7-138.5,74.8-269.9,48.6-409.8
			c-124.3,234.3-220.1,494-339.8,732.4c47.3-205.4,163.6-502,194.1-723.5c9.1-65.6,23.8-157-67.9-165.6
			c-392.2,1171.5-1019.5,2102.1-1834.9,2902.9c-260.4,255.9-558.5,572.5-941.7,680.1c-19.1,5.3-30.9-12.8-38.9-17.5
			c-144.4-84.8-330.4-292.4-446.6-444.5c-392.8-514.5-438.6-1282.4-495.1-2074.8c-76-1065.9-200.1-2184.4-97.1-3173.3
			c-152.4,441.4-119.4,1049.3-223.3,1534.3c24.6-751,1-1667.1,116.5-2336.3c-126.5,246.7-213.4,528.9-271.8,836.9
			c38.4-404,40.8-809.9,67.9-1185.6c-125.6-160.3-238.6-332.1-330.1-523C1361.9,37370.7,1480.9,37542.9,1581.6,37609.3"/>
		<path id="path1202" d="M16260.9,40372.8c13.7,313.3,101.1,635.8,203.8,898c-129.5-185.9-348.8-413.2-514.5-566.7
			c375,639.7,484,1518.2,990.3,2039.9c-327.8-298.5-651.7-769-961.2-1054.8c391.3,752.9,798.4,1491.5,1436.9,2022.5
			c-275.8-142.6-503.7-357-708.8-566.7c-614.4-628.2-1131.2-1381-1533.9-2205.6c-105.2,29-91.8,135.3-58.2,235.4
			c212.7,633.8,606.7,1196.1,1029,1699.9c429.7,512.6,868.2,1017.5,1436.9,1325.1c846.4-606.1,858.1-2145.6,922.3-3513.2
			c38.9-830.9-148.8-1592.1-436.9-2144.7c-471,434.3-964.7,848.2-1475.7,1246.7c-161.4,301-250.1,788.6-29.2,1089.7
			C16451.1,40719.2,16383.6,40521.2,16260.9,40372.8L16260.9,40372.8z M17717.2,38385.1c416.2-343.5,868.7-655.9,1213.6-1063.5
			c75.9-155.6,164-300.3,242.7-453.4c-71.4,264.3-172.1,502.2-262.1,749.7c108.4-88.7,227.1-260.7,320.3-305.1
			c-96.3,186.7-211.4,356.5-330.1,523.1c20.2,368.4,44.3,792.5,58.3,1176.8c-43.3-321.3-135.1-599.3-271.8-836.9
			c139.9,685.3,94.3,1583.2,126.2,2336.3c-109.1-483.2-60.9-1107.6-233-1534.3c136.8,1040.3-34.8,2124.9-87.3,3199.4
			c-39.5,805.4-125.3,1576.4-524.3,2066.1c-97.5,119.7-363.4,482.8-495.2,427.1c-714.5-301.7-1209.9-951.4-1669.9-1516.9
			c-496.6-610.5-779.4-1324-1077.7-2048.7c-81.7,14.4-67,112.1-58.2,174.4c31.2,222,148.8,509.8,194.1,714.9
			c-125.2-236.2-208.3-510.4-349.5-732.4c-8.7,153.2,59.9,283.3,48.6,409.8c-78.9-123.9-128.4-274.1-213.6-392.3
			c-138.5,50-241.7,131.6-388.3,174.4c834.4-685.1,1714-1323.6,2543.6-2013.9C16916.7,39096.4,17302.4,38727.5,17717.2,38385.1"/>
		<path id="path1232" d="M8256.2,29011.1c-299,260-794.7,452.7-1320.4,473.8c-418.7,16.9-823.7-84.6-1281.5-78.9
			c-1683.7,20.5-2673.6,1149.6-3291.2,2448.2c-325.7,684.8-496.4,1455.3-621.4,2425.7c433.8-541.7,1555.5-694.1,2320.3-936.3
			c686.9-217.7,1383.4-488.1,1961.1-801c611.3-331.2,1071.3-832.3,1456.3-1399.1C7856.6,30588.3,8310.1,29967.9,8256.2,29011.1
			L8256.2,29011.1z M8139.6,30274.7c-157,327.8-385.9,640.1-563,891.3c-413.1,585.6-847.2,1054-1436.9,1432.9
			c-583.7,375-1277.5,648.6-1932,846.3c-906.5,273.8-2113.6,329.6-2514.5,1162.1c0.3-15.4-4.7-24.7-9.8-33.8
			c70.3-1985.4,687.6-3341.8,1611.6-4264.8c738.8-737.9,1710-1116.1,3038.8-992.9c399.3,36.9,828.1,98.9,1262,11.3
			c310-62.6,472.9-296.6,718.4-451.2C8674.5,29181.4,8306.8,29926,8139.6,30274.7"/>
		<path id="path1234" d="M16828.8,30161.9c-545.3-438.2-1182.2-740.5-2048.5-755.9c-459.9-8.2-866.6,94.1-1281.5,78.9
			c-512.6-18.7-1014-190.1-1330.1-485.1c-58.9,630.2,149.6,1112.2,378.6,1500.5c539.2,914,1071,1637.7,1990.3,2109.9
			c562.6,288.9,1232.3,545.6,1893.1,755.9c642.7,204.4,1442.6,283.3,1970.9,654.4c104,73.1,203.5,164,271.8,282.1
			c8.3,2.1,9.2-4.4,9.7-11.4C18451.8,32426.2,17894.9,31018.5,16828.8,30161.9z M18731.8,34595.9c-0.6,6.9-1.5,13.3-9.8,11.3
			c-60.9-43.3-68.5-161.1-116.5-236.8c-227.2-359.2-742.4-491.6-1203.9-609.4c-1129.3-288.2-2157.5-553.6-3077.6-1128.3
			c-608-380-1063.8-864.5-1466-1432.8c-175.9-248.5-399.2-569.3-563-913.8c-109-229-413.7-782.9-349.6-1162.2
			c20.8-122.6,99.3-130.5,174.8-248.3c216.9,156,374.9,350.1,640.8,428.7c411.7,121.7,926.1,48.7,1330.1,11.3
			c1352.6-125.4,2312.3,260.7,3048.5,1004C18048,31237.2,18696.2,32616,18731.8,34595.9"/>
		<path id="path1238" d="M5799.9,32079.9c-997.5,426-2435.7,400.2-3281.4,1094.4c203.9-292.1,426.7-564.5,563-902.6
			c235.5-583.8,606.5-1016.1,1029.1-1387.8c559.1-491.6,1180.6-890.6,2067.9-1049.3c-695.4,252.4-1357.5,603.7-1786.4,1128.3
			c725.3-582.5,1711.5-861.6,2805.7-1015.5c-227.7-111.5-562.9-97.9-825.2-169.3c365.9-97.9,884.5-30.5,1262.1-33.8
			c283.5-2.6,377-228.7,534-327.2c-237.2,304.3-377.9,757.9-553.3,1083.1C7209.6,31252.5,6584.3,31745,5799.9,32079.9"/>
		<path id="path1240" d="M12809.5,30500.4c-176.7-327.6-328.4-794.2-553.4-1094.4c158,130.6,270.7,340.9,543.7,338.5
			c380.3-3.5,897.6-67.3,1252.4,45.1c-278.4,52.7-609.6,43.7-825.3,169.1c1116.4,128,2076.7,437.4,2815.5,1004.2
			c-452.9-532.9-1121.6-881.2-1786.4-1128.3c877,160.8,1500.9,559.1,2058.2,1049.3c422.2,371.4,800.1,810.5,1029.1,1376.4
			c140.5,347.1,371.9,638.5,553.4,913.8c-838.5-708.4-2285.8-658.3-3281.5-1094.4C13834.9,31738.1,13210.5,31243.6,12809.5,30500.4"
			/>
		<path id="path1242" d="M1387.4,30564.7c993.4-1263.4,2198.2-2736.3,4446.5-2448.2c271.6,34.8,557.1,131.7,854.4,101.6
			c317.3-32.1,566.2-279.5,718.4-451.3c-787.7,299.6-1438.4-217.2-2271.8-214.3c-1013.5,3.2-1657.9,530.7-2262.1,1060.4
			C2256.6,29153.5,1787.2,29819.3,1387.4,30564.7L1387.4,30564.7z M5105.8,27078.3c443.4-25.8,811.3,40.5,1116.5,157.9
			c431.5,165.9,1076.5,647.9,1533.9,203.2c-51.6,109.8-143.2,183.7,0,78.9c-358.2,322.2-553.1,829.6-1126.2,880
			c-455.7,40.1-836.8-91-1233-112.7c-1020.2-56.6-1792.4,321.3-2407.7,767.1c-839.7,608.4-1515.1,1328.1-2038.8,2380.6
			c342-1160.8,857.5-2047.3,1495.1-2854.5C3073.8,27783.8,3940.1,27145.9,5105.8,27078.3"/>
		<path id="path1244" d="M17542.4,28612.7c-606.4-531.9-1249.4-1057.1-2262.1-1060.4c-833.3-3-1484.1,514.1-2271.8,214.3
			c152.2,171.8,401.1,419.2,718.4,451.3c297.9,30.2,593.2-66.8,864.1-101.6c2223.6-285.7,3440.5,1155,4427.1,2459.7
			C18647.2,29825.7,18156.9,29151.8,17542.4,28612.7L17542.4,28612.7z M17425.9,29052.8c-435.4-315.4-889.5-528.4-1466-676.9
			c-637-164.1-1243.9-13.9-1873.7,22.5c-807.2,46.7-1016.8-461.4-1427.1-880c143.2,104.8,51.6,30.8,0-78.9
			c164.9,112.6,375,248.5,621.3,191.8c345.4-79.7,614.1-280.1,912.6-395c307.4-118,679.9-187.3,1126.2-157.9
			c1162.2,76.6,2020.3,704,2650.4,1500.3c637.5,806,1153.2,1694.6,1495.1,2854.4C18940.7,30379.9,18263.7,29659.8,17425.9,29052.8"
			/>
		<path id="path1250" d="M8559.4,29031.1c33.3-629.4-142.3-1223.7-217.7-1813.3c-80.1-627.6-127.8-1247.5-163.2-1883.1
			c68.1,614.9,295.5,1108.3,396.4,1717.4C8672.6,27640.6,8695.5,28451.6,8559.4,29031.1"/>
		<path id="path1252" d="M11840.1,29031.1c-122.1-595.8-105.7-1388-7.8-1979c100.8-608,324.9-1115.1,404.3-1717.4
			C12197.6,26626.2,11903.8,27795.6,11840.1,29031.1"/>
		<path id="path1262" d="M3300,26751c-504.8,427.6-907.2,914.4-1281.5,1421.7c515.4-546,1064.9-1151.8,1767-1545.7
			c705-395.4,1765.3-478.9,2592.1-124.1c102,43.7,191.4,126.1,320.4,146.6c259.7,41.5,422.6-69.9,601.9-146.6
			c-849-17.8-1262.8-709-2252.4-631.9C4379.3,25923.2,3731.5,26385.8,3300,26751L3300,26751z M6280.6,25747
			c379.8,235.6,735.7,664,1262,643.1c-231.1,176.5-467.8,466.4-902.8,417.5c-262.4-29.6-492.9-165.8-747.6-225.7
			c-1111.4-261.6-2088.3,101.6-2767,643.1c-511.8,408.3-967.8,828.8-1359.2,1376.4c325.6-748.5,771.5-1370.9,1349.5-1918.1
			c538.6-509.8,1115.7-1151.1,1980.5-1218.4C5546.1,25429.8,5974.8,25557.4,6280.6,25747"/>
		<path id="path1264" d="M16328.8,26220.9c-286.8-151.4-605.8-320.6-951.4-349.8c-423.3-35.9-799.5,69.7-1116.5,214.3
			c-354.2,161.4-642.3,490.2-1145.6,406.1c166.8,91.7,350.1,203.9,611.7,157.9c121-21.3,206.7-106.2,300.9-146.6
			c831.3-357.5,1885.7-266.7,2592.2,124.1c707.8,391.6,1252.1,969.5,1766.9,1557C17863.4,27417.8,17196,26678.8,16328.8,26220.9z
			 M17959.9,27800.5c-821.7-804.5-1935.3-1576-3446.5-1218.5c-256.5,60.7-482,199.1-747.7,225.7c-429.8,42.8-687-248.3-893.1-428.7
			c371.9,63.7,579.1-168.9,825.2-315.9c157-93.7,289.3-224.2,436.9-315.7c300.9-186.5,718.9-318.4,1184.5-282
			c863,67.1,1442.4,709.1,1980.5,1218.4c574.7,544.2,1047.3,1192.7,1339.8,1918.1C18464.1,28317.1,18207.2,28042.5,17959.9,27800.5"
			/>
		<path id="path1290" d="M10083.3,23443.3c-322.3,61.8-597.6,377.3-786.4,575.3c294.5-179.7,578-436.7,1126.2-383.6
			c333.8,32.3,547.2,251.1,776.6,392.3C10976.4,23776.7,10638.1,23336.7,10083.3,23443.3z M12957,22371
			c-75,234.9-184.6,438.6-233,697.5c-499.5-64.2-1059.2-365.5-1660.1-305.2c-277.5,27.9-455.6,199.3-640.8,331.3
			c38.4,9.1,68.7,25.5,116.5,26.2c329.2-380,1261-130.3,1640.7,43.5c-397.8-90.5-1046.8-244.8-1330,17.5
			c23.2,181.8,36.3,91.8,145.6,322.6c202.4,172.7,280.9,456.8,495.2,618.9c369,87.2,640.4,262,834.9,505.7
			c-155.9-89.9-357.6-264.1-611.6-287.7c-291.8-27-475.4,113.1-718.5,139.5c-471.3,51-1031.6,49.1-1485.4,0
			c-184.3-20-330.8-99.9-504.8-130.8c-392.1-69.8-623.4,178.7-825.3,270.3c206.5-233.1,466.8-417.8,844.7-496.9
			c198.1-176.6,295.8-443.4,485.4-627.6c158-213.7,159-244.1,155.4-313.8c-318.5-275.6-949.7-88.4-1339.8-26.2
			c399.4-162.6,1312-413.1,1650.5-34.8c38.3-9.2,86.6-9.5,106.8-34.9c-198.5-124.9-364.6-296.2-650.5-322.6
			c-596.2-54.8-1153.2,238.8-1650.4,305.2c-53.7-257-150.5-475.2-242.8-697.5c-47.3,370.2-296.7,558.8-388.3,889.2
			c-1083.9,287.8-1982.1,789-2844.6,1246.7c664.4-480.3,1451.4-944,2281.5-1299c121-51.7,294.1-87.8,369-148.2
			c66.1-53.4,120.6-203.4,165-287.7c112.6-213.3,217.8-380.8,330.1-575.3c51.7-89.5,74.9-228.7,203.9-261.5
			c113.6,243.7,163.7,544.6,271.8,793.3c431-107.3,1012.6-275,1553.4-226.6c367.5,32.9,556.7,230.9,776.7,401
			c209.5-177.7,404.5-368.5,766.9-401c544-48.7,1127.2,122.8,1563.1,226.6c89.9-262.1,154.2-547.4,262.2-793.3
			c122,32.3,153.2,162.9,203.9,252.8c114.9,204,230.8,378.4,339.7,584.1c50.2,94.6,89,241.3,165.1,296.4
			c77.1,55.9,245.6,99.8,359.3,148.1c849.9,361.7,1631.3,800.3,2271.8,1299c-863.9-491.4-1754.5-958.5-2834.9-1255.3
			C13257.3,22932.5,13021.7,22728.4,12957,22371"/>
		<path class="st4" d="M5474.7,35037.4"/>
		<path class="st0" d="M8387.3,24909.9"/>
	</g>
</g>
<path class="st2" d="M260.7,3496.7"/>
</svg>
